<svg width="35" height="36" viewBox="0 0 35 36" fill="none" xmlns="http://www.w3.org/2000/svg">
<path d="M17.5 32.5171C9.44559 32.5171 2.91663 25.9881 2.91663 17.9337C2.91663 9.87936 9.44559 3.3504 17.5 3.3504C25.5543 3.3504 32.0833 9.87936 32.0833 17.9337C32.0833 25.9881 25.5543 32.5171 17.5 32.5171ZM17.5 29.6004C20.5942 29.6004 23.5616 28.3712 25.7495 26.1833C27.9375 23.9954 29.1666 21.0279 29.1666 17.9337C29.1666 14.8395 27.9375 11.8721 25.7495 9.68416C23.5616 7.49623 20.5942 6.26707 17.5 6.26707C14.4058 6.26707 11.4383 7.49623 9.25038 9.68416C7.06246 11.8721 5.83329 14.8395 5.83329 17.9337C5.83329 21.0279 7.06246 23.9954 9.25038 26.1833C11.4383 28.3712 14.4058 29.6004 17.5 29.6004ZM16.0416 22.3087H18.9583V25.2254H16.0416V22.3087ZM18.9583 19.9098V20.8504H16.0416V18.6629C16.0416 18.2761 16.1953 17.9052 16.4688 17.6317C16.7423 17.3582 17.1132 17.2046 17.5 17.2046C17.9142 17.2045 18.32 17.0869 18.67 16.8653C19.02 16.6436 19.2999 16.3272 19.4771 15.9527C19.6543 15.5782 19.7215 15.1611 19.671 14.75C19.6204 14.3388 19.4541 13.9504 19.1914 13.6301C18.9287 13.3097 18.5805 13.0705 18.1872 12.9404C17.7939 12.8102 17.3717 12.7944 16.9697 12.8948C16.5678 12.9952 16.2027 13.2076 15.9167 13.5074C15.6308 13.8072 15.436 14.1821 15.3548 14.5883L12.4935 14.0152C12.6709 13.1287 13.0805 12.3051 13.6805 11.6288C14.2804 10.9524 15.0493 10.4475 15.9083 10.1657C16.7674 9.88382 17.6859 9.83515 18.5699 10.0246C19.454 10.2141 20.2718 10.6349 20.9399 11.2441C21.608 11.8533 22.1023 12.6289 22.3724 13.4917C22.6425 14.3546 22.6786 15.2737 22.4771 16.155C22.2755 17.0364 21.8435 17.8484 21.2253 18.5081C20.6071 19.1678 19.8247 19.6515 18.9583 19.9098Z" fill="#546EC9"/>
</svg>
