<svg width="445" height="111" viewBox="0 0 445 111" fill="none" xmlns="http://www.w3.org/2000/svg">
<ellipse cx="41.0559" cy="24.066" rx="23.8386" ry="24.066" fill="#FF6A6A"/>
<path d="M41.056 45.153C74.459 44.8483 80.6854 88.2377 81.846 104.424C82.083 107.729 79.4257 110.413 76.1119 110.413H5.99998C2.68627 110.413 0.0295987 107.725 0.27079 104.42C1.44397 88.3447 7.69962 45.4573 41.056 45.153Z" fill="#FF6A6A"/>
<ellipse cx="162.274" cy="27.2079" rx="24.5461" ry="23.2079" fill="#51CEA9"/>
<path d="M162.274 47.5432C196.517 47.2506 203.023 88.7233 204.259 104.493C204.518 107.796 201.863 110.476 198.549 110.476H126C122.686 110.476 120.031 107.799 120.295 104.496C121.543 88.8403 128.076 47.8353 162.274 47.5432Z" fill="#51CEA9"/>
<ellipse cx="283.056" cy="24.066" rx="23.8386" ry="24.066" fill="#FFC16A"/>
<path d="M283.056 45.153C316.459 44.8483 322.685 88.2377 323.846 104.424C324.083 107.729 321.426 110.413 318.112 110.413H248C244.686 110.413 242.03 107.725 242.271 104.42C243.444 88.3447 249.7 45.4573 283.056 45.153Z" fill="#FFC16A"/>
<ellipse cx="403.056" cy="24.066" rx="23.8386" ry="24.066" fill="#6FBDE8"/>
<path d="M403.056 45.1812C436.459 44.8765 442.685 88.2659 443.846 104.452C444.083 107.757 441.426 110.441 438.112 110.441H368C364.686 110.441 362.03 107.753 362.271 104.448C363.444 88.3728 369.7 45.4854 403.056 45.1812Z" fill="#6FBDE8"/>
</svg>
