<svg width="855" height="234" viewBox="0 0 855 234" fill="none" xmlns="http://www.w3.org/2000/svg">
<path d="M447.904 96.3652L450.922 91.1504H454.877L450.028 98.958L455.038 107H451.112L447.948 101.58L444.799 107H440.844L445.854 98.958L441.02 91.1504H444.945L447.904 96.3652ZM466.713 107H463.168V89.876L457.938 91.6631V88.6602L466.259 85.5986H466.713V107ZM488.026 98.0205C488.026 101.087 487.45 103.401 486.298 104.964C485.155 106.517 483.412 107.293 481.068 107.293C478.764 107.293 477.025 106.536 475.854 105.022C474.691 103.499 474.096 101.248 474.066 98.2695V94.5781C474.066 91.5117 474.638 89.2119 475.78 87.6787C476.933 86.1455 478.686 85.3789 481.039 85.3789C483.373 85.3789 485.111 86.126 486.254 87.6201C487.406 89.1143 487.997 91.3506 488.026 94.3291V98.0205ZM484.467 94.0361C484.467 92.0342 484.193 90.5693 483.646 89.6416C483.1 88.7041 482.23 88.2354 481.039 88.2354C479.877 88.2354 479.022 88.6797 478.476 89.5684C477.929 90.4473 477.641 91.8242 477.611 93.6992V98.5332C477.611 100.525 477.89 102.01 478.446 102.986C479.003 103.963 479.877 104.451 481.068 104.451C482.211 104.451 483.056 104.002 483.603 103.104C484.149 102.195 484.438 100.779 484.467 98.8555V94.0361ZM491.029 89.7734C491.029 88.4844 491.444 87.4297 492.274 86.6094C493.104 85.7793 494.193 85.3643 495.541 85.3643C496.908 85.3643 498.002 85.7793 498.822 86.6094C499.652 87.4297 500.067 88.5088 500.067 89.8467V90.9014C500.067 92.1807 499.652 93.2305 498.822 94.0508C498.002 94.8711 496.918 95.2812 495.57 95.2812C494.252 95.2812 493.163 94.8809 492.304 94.0801C491.454 93.2695 491.029 92.1807 491.029 90.8135V89.7734ZM493.52 90.9014C493.52 91.5752 493.705 92.1221 494.076 92.542C494.457 92.9521 494.955 93.1572 495.57 93.1572C496.176 93.1572 496.664 92.9521 497.035 92.542C497.406 92.1221 497.592 91.5557 497.592 90.8428V89.7734C497.592 89.0996 497.401 88.5527 497.021 88.1328C496.649 87.7129 496.156 87.5029 495.541 87.5029C494.926 87.5029 494.433 87.7178 494.062 88.1475C493.7 88.5674 493.52 89.124 493.52 89.8174V90.9014ZM501.283 101.771C501.283 100.462 501.708 99.4023 502.558 98.5918C503.407 97.7812 504.491 97.376 505.81 97.376C507.138 97.376 508.222 97.7812 509.062 98.5918C509.911 99.4023 510.336 100.496 510.336 101.873V102.913C510.336 104.183 509.926 105.232 509.105 106.062C508.295 106.883 507.206 107.293 505.839 107.293C504.472 107.293 503.368 106.888 502.528 106.077C501.698 105.257 501.283 104.178 501.283 102.84V101.771ZM503.773 102.913C503.773 103.577 503.964 104.124 504.345 104.554C504.735 104.974 505.233 105.184 505.839 105.184C506.464 105.184 506.952 104.983 507.304 104.583C507.665 104.173 507.846 103.602 507.846 102.869V101.771C507.846 101.087 507.655 100.54 507.274 100.13C506.894 99.7197 506.405 99.5146 505.81 99.5146C505.204 99.5146 504.711 99.7197 504.33 100.13C503.959 100.54 503.773 101.106 503.773 101.829V102.913ZM496.303 105.403L494.472 104.349L504.887 87.6787L506.718 88.7334L496.303 105.403Z" fill="#002A52"/>
<path d="M561.116 155L541.116 143.453V166.547L561.116 155ZM406 157H543.116V153H406V157Z" fill="#002A52"/>
<path d="M441.625 125.383H433.207V123.41H441.625V125.383ZM441.625 129.523H433.207V127.561H441.625V129.523ZM457.055 127.932H458.822V129.836H457.055V133H454.682V129.836H448.539L448.471 128.391L454.604 118.781H457.055V127.932ZM450.961 127.932H454.682V121.994L454.506 122.307L450.961 127.932ZM474.779 127.824C474.779 129.458 474.408 130.764 473.666 131.74C472.924 132.71 471.928 133.195 470.678 133.195C469.519 133.195 468.591 132.814 467.895 132.053V137.062H465.521V122.434H467.709L467.807 123.508C468.503 122.661 469.451 122.238 470.648 122.238C471.938 122.238 472.947 122.72 473.676 123.684C474.411 124.641 474.779 125.972 474.779 127.678V127.824ZM472.416 127.619C472.416 126.564 472.204 125.728 471.781 125.109C471.365 124.491 470.766 124.182 469.984 124.182C469.014 124.182 468.318 124.582 467.895 125.383V130.07C468.324 130.891 469.027 131.301 470.004 131.301C470.759 131.301 471.348 130.998 471.771 130.393C472.201 129.781 472.416 128.856 472.416 127.619ZM476.352 127.619C476.352 126.584 476.557 125.653 476.967 124.826C477.377 123.993 477.953 123.355 478.695 122.912C479.438 122.463 480.29 122.238 481.254 122.238C482.68 122.238 483.835 122.697 484.721 123.615C485.613 124.533 486.094 125.751 486.166 127.268L486.176 127.824C486.176 128.866 485.974 129.797 485.57 130.617C485.173 131.438 484.6 132.072 483.852 132.521C483.109 132.971 482.25 133.195 481.273 133.195C479.783 133.195 478.588 132.701 477.689 131.711C476.798 130.715 476.352 129.39 476.352 127.736V127.619ZM478.725 127.824C478.725 128.911 478.949 129.764 479.398 130.383C479.848 130.995 480.473 131.301 481.273 131.301C482.074 131.301 482.696 130.988 483.139 130.363C483.588 129.738 483.812 128.824 483.812 127.619C483.812 126.551 483.581 125.705 483.119 125.08C482.663 124.455 482.042 124.143 481.254 124.143C480.479 124.143 479.864 124.452 479.408 125.07C478.952 125.682 478.725 126.6 478.725 127.824ZM490.707 133H488.334V122.434H490.707V133ZM488.188 119.689C488.188 119.325 488.301 119.022 488.529 118.781C488.764 118.54 489.096 118.42 489.525 118.42C489.955 118.42 490.287 118.54 490.521 118.781C490.756 119.022 490.873 119.325 490.873 119.689C490.873 120.048 490.756 120.347 490.521 120.588C490.287 120.822 489.955 120.939 489.525 120.939C489.096 120.939 488.764 120.822 488.529 120.588C488.301 120.347 488.188 120.048 488.188 119.689ZM495.502 122.434L495.57 123.654C496.352 122.71 497.377 122.238 498.646 122.238C500.847 122.238 501.967 123.498 502.006 126.018V133H499.633V126.154C499.633 125.484 499.486 124.989 499.193 124.67C498.907 124.344 498.435 124.182 497.777 124.182C496.82 124.182 496.107 124.615 495.639 125.48V133H493.266V122.434H495.502ZM507.406 119.865V122.434H509.271V124.191H507.406V130.09C507.406 130.493 507.484 130.786 507.641 130.969C507.803 131.145 508.09 131.232 508.5 131.232C508.773 131.232 509.05 131.2 509.33 131.135V132.971C508.79 133.12 508.269 133.195 507.768 133.195C505.945 133.195 505.033 132.189 505.033 130.178V124.191H503.295V122.434H505.033V119.865H507.406ZM517.016 130.129C517.016 129.706 516.84 129.383 516.488 129.162C516.143 128.941 515.567 128.745 514.76 128.576C513.952 128.407 513.279 128.192 512.738 127.932C511.553 127.359 510.961 126.529 510.961 125.441C510.961 124.53 511.345 123.768 512.113 123.156C512.882 122.544 513.858 122.238 515.043 122.238C516.306 122.238 517.325 122.551 518.1 123.176C518.881 123.801 519.271 124.611 519.271 125.607H516.898C516.898 125.152 516.729 124.774 516.391 124.475C516.052 124.169 515.603 124.016 515.043 124.016C514.522 124.016 514.096 124.136 513.764 124.377C513.438 124.618 513.275 124.94 513.275 125.344C513.275 125.708 513.428 125.992 513.734 126.193C514.04 126.395 514.659 126.6 515.59 126.809C516.521 127.01 517.25 127.255 517.777 127.541C518.311 127.821 518.705 128.16 518.959 128.557C519.219 128.954 519.35 129.436 519.35 130.002C519.35 130.952 518.956 131.724 518.168 132.316C517.38 132.902 516.348 133.195 515.072 133.195C514.206 133.195 513.435 133.039 512.758 132.727C512.081 132.414 511.553 131.984 511.176 131.438C510.798 130.891 510.609 130.301 510.609 129.67H512.914C512.947 130.23 513.158 130.663 513.549 130.969C513.939 131.268 514.457 131.418 515.102 131.418C515.727 131.418 516.202 131.301 516.527 131.066C516.853 130.826 517.016 130.513 517.016 130.129Z" fill="#002A52"/>
<path d="M259.427 117.479H248.904V115.013H259.427V117.479ZM259.427 122.654H248.904V120.201H259.427V122.654ZM278.714 120.665H280.923V123.045H278.714V127H275.748V123.045H268.069L267.984 121.238L275.65 109.227H278.714V120.665ZM271.097 120.665H275.748V113.243L275.528 113.633L271.097 120.665ZM294.473 119.517C294.473 122.072 293.993 124.001 293.033 125.303C292.081 126.597 290.628 127.244 288.675 127.244C286.754 127.244 285.306 126.613 284.329 125.352C283.361 124.083 282.864 122.207 282.84 119.725V116.648C282.84 114.093 283.316 112.177 284.268 110.899C285.228 109.621 286.689 108.982 288.65 108.982C290.595 108.982 292.044 109.605 292.996 110.85C293.956 112.095 294.449 113.959 294.473 116.441V119.517ZM291.507 116.197C291.507 114.528 291.279 113.308 290.823 112.535C290.368 111.753 289.643 111.363 288.65 111.363C287.682 111.363 286.97 111.733 286.514 112.474C286.058 113.206 285.818 114.354 285.794 115.916V119.944C285.794 121.604 286.026 122.841 286.49 123.655C286.954 124.469 287.682 124.876 288.675 124.876C289.627 124.876 290.331 124.502 290.787 123.753C291.242 122.996 291.482 121.816 291.507 120.213V116.197ZM315.079 120.53C315.079 122.573 314.615 124.205 313.687 125.425C312.759 126.638 311.514 127.244 309.952 127.244C308.503 127.244 307.343 126.768 306.473 125.816V132.078H303.506V113.792H306.241L306.363 115.135C307.234 114.077 308.418 113.548 309.915 113.548C311.526 113.548 312.788 114.15 313.699 115.354C314.619 116.551 315.079 118.215 315.079 120.347V120.53ZM312.125 120.274C312.125 118.956 311.86 117.91 311.331 117.137C310.81 116.364 310.062 115.977 309.085 115.977C307.872 115.977 307.002 116.478 306.473 117.479V123.338C307.01 124.363 307.889 124.876 309.109 124.876C310.053 124.876 310.79 124.498 311.319 123.741C311.856 122.976 312.125 121.82 312.125 120.274ZM317.044 120.274C317.044 118.98 317.3 117.816 317.813 116.783C318.326 115.741 319.046 114.944 319.974 114.39C320.901 113.829 321.967 113.548 323.172 113.548C324.954 113.548 326.399 114.122 327.505 115.269C328.62 116.417 329.222 117.938 329.312 119.834L329.324 120.53C329.324 121.832 329.072 122.996 328.567 124.021C328.071 125.047 327.355 125.84 326.419 126.402C325.491 126.963 324.417 127.244 323.196 127.244C321.333 127.244 319.839 126.626 318.716 125.389C317.601 124.144 317.044 122.487 317.044 120.42V120.274ZM320.01 120.53C320.01 121.889 320.291 122.955 320.853 123.729C321.414 124.493 322.195 124.876 323.196 124.876C324.197 124.876 324.974 124.485 325.528 123.704C326.089 122.923 326.37 121.779 326.37 120.274C326.37 118.939 326.081 117.881 325.503 117.1C324.934 116.319 324.157 115.928 323.172 115.928C322.203 115.928 321.434 116.315 320.865 117.088C320.295 117.853 320.01 119 320.01 120.53ZM334.988 127H332.022V113.792H334.988V127ZM331.839 110.362C331.839 109.906 331.981 109.528 332.266 109.227C332.559 108.925 332.974 108.775 333.511 108.775C334.048 108.775 334.463 108.925 334.756 109.227C335.049 109.528 335.196 109.906 335.196 110.362C335.196 110.809 335.049 111.184 334.756 111.485C334.463 111.778 334.048 111.924 333.511 111.924C332.974 111.924 332.559 111.778 332.266 111.485C331.981 111.184 331.839 110.809 331.839 110.362ZM340.982 113.792L341.067 115.318C342.044 114.138 343.326 113.548 344.913 113.548C347.663 113.548 349.063 115.123 349.112 118.272V127H346.146V118.443C346.146 117.605 345.962 116.986 345.596 116.587C345.238 116.181 344.648 115.977 343.826 115.977C342.63 115.977 341.739 116.518 341.153 117.601V127H338.187V113.792H340.982ZM355.862 110.582V113.792H358.194V115.989H355.862V123.362C355.862 123.867 355.96 124.233 356.155 124.461C356.359 124.681 356.717 124.791 357.229 124.791C357.571 124.791 357.917 124.75 358.267 124.668V126.963C357.592 127.151 356.941 127.244 356.314 127.244C354.035 127.244 352.896 125.987 352.896 123.472V115.989H350.723V113.792H352.896V110.582H355.862ZM367.874 123.411C367.874 122.882 367.654 122.479 367.215 122.203C366.784 121.926 366.063 121.682 365.054 121.47C364.045 121.259 363.203 120.99 362.527 120.665C361.046 119.948 360.306 118.911 360.306 117.552C360.306 116.412 360.786 115.46 361.746 114.695C362.706 113.93 363.927 113.548 365.408 113.548C366.987 113.548 368.261 113.938 369.229 114.72C370.206 115.501 370.694 116.514 370.694 117.759H367.728C367.728 117.19 367.516 116.718 367.093 116.343C366.67 115.961 366.108 115.77 365.408 115.77C364.757 115.77 364.224 115.92 363.809 116.221C363.402 116.522 363.199 116.925 363.199 117.43C363.199 117.885 363.39 118.239 363.772 118.492C364.155 118.744 364.928 119 366.092 119.261C367.256 119.513 368.167 119.818 368.826 120.176C369.493 120.526 369.986 120.949 370.303 121.446C370.629 121.942 370.792 122.544 370.792 123.252C370.792 124.441 370.299 125.405 369.314 126.146C368.33 126.878 367.04 127.244 365.445 127.244C364.362 127.244 363.398 127.049 362.552 126.658C361.705 126.268 361.046 125.73 360.574 125.047C360.102 124.363 359.866 123.627 359.866 122.837H362.747C362.788 123.537 363.052 124.078 363.541 124.461C364.029 124.835 364.676 125.022 365.481 125.022C366.263 125.022 366.857 124.876 367.264 124.583C367.671 124.282 367.874 123.891 367.874 123.411ZM283.731 139.582V142.792H286.062V144.989H283.731V152.362C283.731 152.867 283.829 153.233 284.024 153.461C284.227 153.681 284.585 153.791 285.098 153.791C285.44 153.791 285.786 153.75 286.136 153.668V155.963C285.46 156.151 284.809 156.244 284.183 156.244C281.904 156.244 280.765 154.987 280.765 152.472V144.989H278.592V142.792H280.765V139.582H283.731ZM296.231 156C296.101 155.748 295.987 155.337 295.889 154.767C294.945 155.752 293.79 156.244 292.422 156.244C291.096 156.244 290.014 155.866 289.175 155.109C288.337 154.352 287.918 153.416 287.918 152.301C287.918 150.893 288.439 149.815 289.48 149.066C290.53 148.31 292.028 147.931 293.973 147.931H295.792V147.064C295.792 146.381 295.6 145.836 295.218 145.429C294.835 145.014 294.253 144.806 293.472 144.806C292.797 144.806 292.243 144.977 291.812 145.319C291.381 145.653 291.165 146.08 291.165 146.601H288.199C288.199 145.876 288.439 145.201 288.919 144.574C289.399 143.939 290.05 143.443 290.872 143.085C291.702 142.727 292.626 142.548 293.643 142.548C295.189 142.548 296.422 142.938 297.342 143.72C298.261 144.493 298.733 145.583 298.758 146.991V152.948C298.758 154.136 298.925 155.084 299.258 155.792V156H296.231ZM292.972 153.864C293.558 153.864 294.107 153.721 294.62 153.437C295.14 153.152 295.531 152.769 295.792 152.289V149.799H294.192C293.094 149.799 292.268 149.99 291.714 150.373C291.161 150.755 290.884 151.296 290.884 151.996C290.884 152.566 291.071 153.021 291.446 153.363C291.828 153.697 292.337 153.864 292.972 153.864ZM306.155 150.336L304.837 151.691V156H301.871V137.25H304.837V148.065L305.765 146.906L309.415 142.792H312.979L308.072 148.297L313.504 156H310.074L306.155 150.336ZM320.499 156.244C318.619 156.244 317.093 155.654 315.921 154.474C314.757 153.286 314.175 151.707 314.175 149.738V149.372C314.175 148.053 314.428 146.877 314.932 145.844C315.445 144.802 316.161 143.992 317.081 143.415C318 142.837 319.026 142.548 320.157 142.548C321.955 142.548 323.343 143.122 324.319 144.269C325.304 145.417 325.796 147.04 325.796 149.14V150.336H317.166C317.256 151.426 317.618 152.289 318.252 152.924C318.895 153.559 319.701 153.876 320.669 153.876C322.028 153.876 323.135 153.327 323.99 152.228L325.589 153.754C325.06 154.543 324.352 155.158 323.465 155.597C322.586 156.028 321.597 156.244 320.499 156.244ZM320.145 144.928C319.331 144.928 318.672 145.213 318.167 145.783C317.671 146.352 317.353 147.146 317.215 148.163H322.867V147.943C322.802 146.951 322.537 146.202 322.073 145.697C321.609 145.185 320.966 144.928 320.145 144.928ZM330.862 142.792L330.948 144.318C331.924 143.138 333.206 142.548 334.793 142.548C337.544 142.548 338.943 144.123 338.992 147.272V156H336.026V147.443C336.026 146.605 335.843 145.986 335.477 145.587C335.118 145.181 334.528 144.977 333.707 144.977C332.51 144.977 331.619 145.518 331.033 146.601V156H328.067V142.792H330.862Z" fill="#002A52"/>
<circle cx="701.5" cy="126" r="106.5" fill="#002A52"/>
<circle cx="702" cy="126.5" r="80" fill="white"/>
<path d="M687.659 124.5H684.114V107.376L678.885 109.163V106.16L687.205 103.099H687.659V124.5ZM706.146 103.069V106.014H705.706C703.714 106.043 702.122 106.59 700.931 107.654C699.739 108.719 699.031 110.228 698.807 112.181C699.949 110.979 701.409 110.379 703.187 110.379C705.071 110.379 706.556 111.043 707.64 112.371C708.733 113.699 709.28 115.413 709.28 117.513C709.28 119.681 708.641 121.438 707.361 122.786C706.092 124.124 704.422 124.793 702.352 124.793C700.223 124.793 698.494 124.007 697.166 122.435C695.848 120.862 695.188 118.802 695.188 116.253V115.037C695.188 111.297 696.097 108.367 697.913 106.248C699.739 104.129 702.361 103.069 705.779 103.069H706.146ZM702.322 113.25C701.541 113.25 700.823 113.47 700.169 113.909C699.524 114.349 699.051 114.935 698.748 115.667V116.751C698.748 118.333 699.08 119.593 699.744 120.53C700.408 121.458 701.268 121.922 702.322 121.922C703.377 121.922 704.212 121.526 704.827 120.735C705.442 119.944 705.75 118.904 705.75 117.615C705.75 116.326 705.438 115.276 704.812 114.466C704.188 113.655 703.357 113.25 702.322 113.25ZM724.163 116.897H726.814V119.754H724.163V124.5H720.604V119.754H711.39L711.287 117.586L720.486 103.172H724.163V116.897ZM715.022 116.897H720.604V107.991L720.34 108.46L715.022 116.897Z" fill="#002A52"/>
<path d="M667.225 142.324C667.225 143.958 666.854 145.264 666.111 146.24C665.369 147.21 664.373 147.695 663.123 147.695C661.964 147.695 661.036 147.314 660.34 146.553V151.562H657.967V136.934H660.154L660.252 138.008C660.949 137.161 661.896 136.738 663.094 136.738C664.383 136.738 665.392 137.22 666.121 138.184C666.857 139.141 667.225 140.472 667.225 142.178V142.324ZM664.861 142.119C664.861 141.064 664.65 140.228 664.227 139.609C663.81 138.991 663.211 138.682 662.43 138.682C661.46 138.682 660.763 139.082 660.34 139.883V144.57C660.77 145.391 661.473 145.801 662.449 145.801C663.204 145.801 663.794 145.498 664.217 144.893C664.646 144.281 664.861 143.356 664.861 142.119ZM668.797 142.119C668.797 141.084 669.002 140.153 669.412 139.326C669.822 138.493 670.398 137.855 671.141 137.412C671.883 136.963 672.736 136.738 673.699 136.738C675.125 136.738 676.281 137.197 677.166 138.115C678.058 139.033 678.54 140.251 678.611 141.768L678.621 142.324C678.621 143.366 678.419 144.297 678.016 145.117C677.618 145.938 677.046 146.572 676.297 147.021C675.555 147.471 674.695 147.695 673.719 147.695C672.228 147.695 671.033 147.201 670.135 146.211C669.243 145.215 668.797 143.89 668.797 142.236V142.119ZM671.17 142.324C671.17 143.411 671.395 144.264 671.844 144.883C672.293 145.495 672.918 145.801 673.719 145.801C674.52 145.801 675.141 145.488 675.584 144.863C676.033 144.238 676.258 143.324 676.258 142.119C676.258 141.051 676.027 140.205 675.564 139.58C675.109 138.955 674.487 138.643 673.699 138.643C672.924 138.643 672.309 138.952 671.854 139.57C671.398 140.182 671.17 141.1 671.17 142.324ZM683.152 147.5H680.779V136.934H683.152V147.5ZM680.633 134.189C680.633 133.825 680.747 133.522 680.975 133.281C681.209 133.04 681.541 132.92 681.971 132.92C682.4 132.92 682.732 133.04 682.967 133.281C683.201 133.522 683.318 133.825 683.318 134.189C683.318 134.548 683.201 134.847 682.967 135.088C682.732 135.322 682.4 135.439 681.971 135.439C681.541 135.439 681.209 135.322 680.975 135.088C680.747 134.847 680.633 134.548 680.633 134.189ZM687.947 136.934L688.016 138.154C688.797 137.21 689.822 136.738 691.092 136.738C693.292 136.738 694.412 137.998 694.451 140.518V147.5H692.078V140.654C692.078 139.984 691.932 139.489 691.639 139.17C691.352 138.844 690.88 138.682 690.223 138.682C689.266 138.682 688.553 139.115 688.084 139.98V147.5H685.711V136.934H687.947ZM699.852 134.365V136.934H701.717V138.691H699.852V144.59C699.852 144.993 699.93 145.286 700.086 145.469C700.249 145.645 700.535 145.732 700.945 145.732C701.219 145.732 701.495 145.7 701.775 145.635V147.471C701.235 147.62 700.714 147.695 700.213 147.695C698.39 147.695 697.479 146.689 697.479 144.678V138.691H695.74V136.934H697.479V134.365H699.852ZM709.461 144.629C709.461 144.206 709.285 143.883 708.934 143.662C708.589 143.441 708.012 143.245 707.205 143.076C706.398 142.907 705.724 142.692 705.184 142.432C703.999 141.859 703.406 141.029 703.406 139.941C703.406 139.03 703.79 138.268 704.559 137.656C705.327 137.044 706.303 136.738 707.488 136.738C708.751 136.738 709.77 137.051 710.545 137.676C711.326 138.301 711.717 139.111 711.717 140.107H709.344C709.344 139.652 709.174 139.274 708.836 138.975C708.497 138.669 708.048 138.516 707.488 138.516C706.967 138.516 706.541 138.636 706.209 138.877C705.883 139.118 705.721 139.44 705.721 139.844C705.721 140.208 705.874 140.492 706.18 140.693C706.486 140.895 707.104 141.1 708.035 141.309C708.966 141.51 709.695 141.755 710.223 142.041C710.757 142.321 711.15 142.66 711.404 143.057C711.665 143.454 711.795 143.936 711.795 144.502C711.795 145.452 711.401 146.224 710.613 146.816C709.826 147.402 708.794 147.695 707.518 147.695C706.652 147.695 705.88 147.539 705.203 147.227C704.526 146.914 703.999 146.484 703.621 145.938C703.243 145.391 703.055 144.801 703.055 144.17H705.359C705.392 144.73 705.604 145.163 705.994 145.469C706.385 145.768 706.902 145.918 707.547 145.918C708.172 145.918 708.647 145.801 708.973 145.566C709.298 145.326 709.461 145.013 709.461 144.629ZM721.375 147.5H719.002V132.5H721.375V147.5ZM728.621 147.695C727.117 147.695 725.896 147.223 724.959 146.279C724.028 145.329 723.562 144.066 723.562 142.49V142.197C723.562 141.143 723.764 140.202 724.168 139.375C724.578 138.542 725.151 137.894 725.887 137.432C726.622 136.969 727.443 136.738 728.348 136.738C729.786 136.738 730.896 137.197 731.678 138.115C732.465 139.033 732.859 140.332 732.859 142.012V142.969H725.955C726.027 143.841 726.316 144.531 726.824 145.039C727.339 145.547 727.983 145.801 728.758 145.801C729.845 145.801 730.73 145.361 731.414 144.482L732.693 145.703C732.27 146.335 731.704 146.826 730.994 147.178C730.291 147.523 729.5 147.695 728.621 147.695ZM728.338 138.643C727.687 138.643 727.16 138.87 726.756 139.326C726.359 139.782 726.105 140.417 725.994 141.23H730.516V141.055C730.464 140.26 730.252 139.661 729.881 139.258C729.51 138.848 728.995 138.643 728.338 138.643ZM735.545 147.5V138.691H733.934V136.934H735.545V135.967C735.545 134.795 735.87 133.89 736.521 133.252C737.173 132.614 738.084 132.295 739.256 132.295C739.673 132.295 740.115 132.354 740.584 132.471L740.525 134.326C740.265 134.274 739.962 134.248 739.617 134.248C738.484 134.248 737.918 134.831 737.918 135.996V136.934H740.066V138.691H737.918V147.5H735.545ZM744.773 134.365V136.934H746.639V138.691H744.773V144.59C744.773 144.993 744.852 145.286 745.008 145.469C745.171 145.645 745.457 145.732 745.867 145.732C746.141 145.732 746.417 145.7 746.697 145.635V147.471C746.157 147.62 745.636 147.695 745.135 147.695C743.312 147.695 742.4 146.689 742.4 144.678V138.691H740.662V136.934H742.4V134.365H744.773Z" fill="black"/>
<path d="M88.3013 132H84.7563V114.876L79.5269 116.663V113.66L87.8472 110.599H88.3013V132ZM106.788 110.569V113.514H106.348C104.356 113.543 102.764 114.09 101.573 115.154C100.381 116.219 99.6733 117.728 99.4487 119.681C100.591 118.479 102.051 117.879 103.829 117.879C105.713 117.879 107.198 118.543 108.282 119.871C109.375 121.199 109.922 122.913 109.922 125.013C109.922 127.181 109.283 128.938 108.003 130.286C106.734 131.624 105.064 132.293 102.994 132.293C100.865 132.293 99.1362 131.507 97.8081 129.935C96.4897 128.362 95.8306 126.302 95.8306 123.753V122.537C95.8306 118.797 96.7388 115.867 98.5552 113.748C100.381 111.629 103.003 110.569 106.421 110.569H106.788ZM102.964 120.75C102.183 120.75 101.465 120.97 100.811 121.409C100.167 121.849 99.6929 122.435 99.3901 123.167V124.251C99.3901 125.833 99.7222 127.093 100.386 128.03C101.05 128.958 101.91 129.422 102.964 129.422C104.019 129.422 104.854 129.026 105.469 128.235C106.084 127.444 106.392 126.404 106.392 125.115C106.392 123.826 106.08 122.776 105.455 121.966C104.83 121.155 104 120.75 102.964 120.75ZM126.666 123.021C126.666 126.087 126.089 128.401 124.937 129.964C123.794 131.517 122.051 132.293 119.708 132.293C117.403 132.293 115.665 131.536 114.493 130.022C113.331 128.499 112.735 126.248 112.706 123.27V119.578C112.706 116.512 113.277 114.212 114.419 112.679C115.572 111.146 117.325 110.379 119.678 110.379C122.012 110.379 123.75 111.126 124.893 112.62C126.045 114.114 126.636 116.351 126.666 119.329V123.021ZM123.106 119.036C123.106 117.034 122.833 115.569 122.286 114.642C121.739 113.704 120.87 113.235 119.678 113.235C118.516 113.235 117.662 113.68 117.115 114.568C116.568 115.447 116.28 116.824 116.25 118.699V123.533C116.25 125.525 116.529 127.01 117.085 127.986C117.642 128.963 118.516 129.451 119.708 129.451C120.85 129.451 121.695 129.002 122.242 128.104C122.789 127.195 123.077 125.779 123.106 123.855V119.036ZM72.2246 149.824C72.2246 151.458 71.8535 152.764 71.1113 153.74C70.3691 154.71 69.373 155.195 68.123 155.195C66.9642 155.195 66.0365 154.814 65.3398 154.053V159.062H62.9668V144.434H65.1543L65.252 145.508C65.9486 144.661 66.8958 144.238 68.0938 144.238C69.3828 144.238 70.3919 144.72 71.1211 145.684C71.8568 146.641 72.2246 147.972 72.2246 149.678V149.824ZM69.8613 149.619C69.8613 148.564 69.6497 147.728 69.2266 147.109C68.8099 146.491 68.2109 146.182 67.4297 146.182C66.4596 146.182 65.763 146.582 65.3398 147.383V152.07C65.7695 152.891 66.4727 153.301 67.4492 153.301C68.2044 153.301 68.7936 152.998 69.2168 152.393C69.6465 151.781 69.8613 150.856 69.8613 149.619ZM73.7969 149.619C73.7969 148.584 74.002 147.653 74.4121 146.826C74.8223 145.993 75.3984 145.355 76.1406 144.912C76.8828 144.463 77.7357 144.238 78.6992 144.238C80.125 144.238 81.2806 144.697 82.166 145.615C83.0579 146.533 83.5397 147.751 83.6113 149.268L83.6211 149.824C83.6211 150.866 83.4193 151.797 83.0156 152.617C82.6185 153.438 82.0456 154.072 81.2969 154.521C80.5547 154.971 79.6953 155.195 78.7188 155.195C77.2279 155.195 76.0332 154.701 75.1348 153.711C74.2428 152.715 73.7969 151.39 73.7969 149.736V149.619ZM76.1699 149.824C76.1699 150.911 76.3945 151.764 76.8438 152.383C77.293 152.995 77.918 153.301 78.7188 153.301C79.5195 153.301 80.1413 152.988 80.584 152.363C81.0332 151.738 81.2578 150.824 81.2578 149.619C81.2578 148.551 81.0267 147.705 80.5645 147.08C80.1087 146.455 79.487 146.143 78.6992 146.143C77.9245 146.143 77.3092 146.452 76.8535 147.07C76.3978 147.682 76.1699 148.6 76.1699 149.824ZM88.1523 155H85.7793V144.434H88.1523V155ZM85.6328 141.689C85.6328 141.325 85.7467 141.022 85.9746 140.781C86.209 140.54 86.541 140.42 86.9707 140.42C87.4004 140.42 87.7324 140.54 87.9668 140.781C88.2012 141.022 88.3184 141.325 88.3184 141.689C88.3184 142.048 88.2012 142.347 87.9668 142.588C87.7324 142.822 87.4004 142.939 86.9707 142.939C86.541 142.939 86.209 142.822 85.9746 142.588C85.7467 142.347 85.6328 142.048 85.6328 141.689ZM92.9473 144.434L93.0156 145.654C93.7969 144.71 94.8223 144.238 96.0918 144.238C98.2923 144.238 99.4121 145.498 99.4512 148.018V155H97.0781V148.154C97.0781 147.484 96.9316 146.989 96.6387 146.67C96.3522 146.344 95.8802 146.182 95.2227 146.182C94.2656 146.182 93.5527 146.615 93.084 147.48V155H90.7109V144.434H92.9473ZM104.852 141.865V144.434H106.717V146.191H104.852V152.09C104.852 152.493 104.93 152.786 105.086 152.969C105.249 153.145 105.535 153.232 105.945 153.232C106.219 153.232 106.495 153.2 106.775 153.135V154.971C106.235 155.12 105.714 155.195 105.213 155.195C103.39 155.195 102.479 154.189 102.479 152.178V146.191H100.74V144.434H102.479V141.865H104.852ZM114.461 152.129C114.461 151.706 114.285 151.383 113.934 151.162C113.589 150.941 113.012 150.745 112.205 150.576C111.398 150.407 110.724 150.192 110.184 149.932C108.999 149.359 108.406 148.529 108.406 147.441C108.406 146.53 108.79 145.768 109.559 145.156C110.327 144.544 111.303 144.238 112.488 144.238C113.751 144.238 114.77 144.551 115.545 145.176C116.326 145.801 116.717 146.611 116.717 147.607H114.344C114.344 147.152 114.174 146.774 113.836 146.475C113.497 146.169 113.048 146.016 112.488 146.016C111.967 146.016 111.541 146.136 111.209 146.377C110.883 146.618 110.721 146.94 110.721 147.344C110.721 147.708 110.874 147.992 111.18 148.193C111.486 148.395 112.104 148.6 113.035 148.809C113.966 149.01 114.695 149.255 115.223 149.541C115.757 149.821 116.15 150.16 116.404 150.557C116.665 150.954 116.795 151.436 116.795 152.002C116.795 152.952 116.401 153.724 115.613 154.316C114.826 154.902 113.794 155.195 112.518 155.195C111.652 155.195 110.88 155.039 110.203 154.727C109.526 154.414 108.999 153.984 108.621 153.438C108.243 152.891 108.055 152.301 108.055 151.67H110.359C110.392 152.23 110.604 152.663 110.994 152.969C111.385 153.268 111.902 153.418 112.547 153.418C113.172 153.418 113.647 153.301 113.973 153.066C114.298 152.826 114.461 152.513 114.461 152.129ZM126.375 155H124.002V140H126.375V155ZM133.621 155.195C132.117 155.195 130.896 154.723 129.959 153.779C129.028 152.829 128.562 151.566 128.562 149.99V149.697C128.562 148.643 128.764 147.702 129.168 146.875C129.578 146.042 130.151 145.394 130.887 144.932C131.622 144.469 132.443 144.238 133.348 144.238C134.786 144.238 135.896 144.697 136.678 145.615C137.465 146.533 137.859 147.832 137.859 149.512V150.469H130.955C131.027 151.341 131.316 152.031 131.824 152.539C132.339 153.047 132.983 153.301 133.758 153.301C134.845 153.301 135.73 152.861 136.414 151.982L137.693 153.203C137.27 153.835 136.704 154.326 135.994 154.678C135.291 155.023 134.5 155.195 133.621 155.195ZM133.338 146.143C132.687 146.143 132.16 146.37 131.756 146.826C131.359 147.282 131.105 147.917 130.994 148.73H135.516V148.555C135.464 147.76 135.252 147.161 134.881 146.758C134.51 146.348 133.995 146.143 133.338 146.143ZM140.545 155V146.191H138.934V144.434H140.545V143.467C140.545 142.295 140.87 141.39 141.521 140.752C142.173 140.114 143.084 139.795 144.256 139.795C144.673 139.795 145.115 139.854 145.584 139.971L145.525 141.826C145.265 141.774 144.962 141.748 144.617 141.748C143.484 141.748 142.918 142.331 142.918 143.496V144.434H145.066V146.191H142.918V155H140.545ZM149.773 141.865V144.434H151.639V146.191H149.773V152.09C149.773 152.493 149.852 152.786 150.008 152.969C150.171 153.145 150.457 153.232 150.867 153.232C151.141 153.232 151.417 153.2 151.697 153.135V154.971C151.157 155.12 150.636 155.195 150.135 155.195C148.312 155.195 147.4 154.189 147.4 152.178V146.191H145.662V144.434H147.4V141.865H149.773Z" fill="#002A52"/>
<path d="M213 135.082C208.135 191.391 159.48 234.226 104.022 232.978C46.1111 231.68 -3.20434 182.638 0.162881 124.293C3.36936 68.8214 53.0147 24.4836 111.332 27.111L110.283 51.4804C64.7238 49.477 25.8739 83.3132 23.3696 125.639C20.73 170.174 59.2585 207.59 104.589 208.567C147.957 209.52 185.986 176.833 189.785 133.85L213 135.082Z" fill="#002A52"/>
<path d="M712.5 76.5L727 0.5L855 126.5H754.5L712.5 76.5Z" fill="white"/>
</svg>
