<svg width="183" height="111" viewBox="0 0 183 111" fill="none" xmlns="http://www.w3.org/2000/svg">
<ellipse cx="41.056" cy="24.066" rx="23.8386" ry="24.066" fill="#6FBDE8"/>
<path d="M41.056 45.1812C74.459 44.8765 80.6854 88.2659 81.8461 104.452C82.0831 107.757 79.4257 110.441 76.112 110.441H6.00001C2.6863 110.441 0.0296292 107.753 0.270821 104.448C1.444 88.3728 7.69965 45.4854 41.056 45.1812Z" fill="#6FBDE8"/>
<g filter="url(#filter0_d)">
<ellipse cx="151.5" cy="54.7833" rx="27.5" ry="27.7833" fill="#F6F6F6"/>
</g>
<path d="M138.674 57.3757H131.801V54.5315H138.674V57.3757ZM149.929 63.5647H146.401V49.9661L142.189 51.2722V48.4036L149.55 45.7668H149.929V63.5647ZM167.678 56.2161C167.678 58.6737 167.169 60.5536 166.152 61.8557C165.134 63.1578 163.645 63.8088 161.684 63.8088C159.747 63.8088 158.266 63.17 157.241 61.8923C156.215 60.6147 155.69 58.7836 155.666 56.3992V53.1277C155.666 50.6456 156.179 48.7616 157.204 47.4758C158.237 46.19 159.723 45.5471 161.659 45.5471C163.596 45.5471 165.077 46.186 166.103 47.4636C167.128 48.7332 167.653 50.5601 167.678 52.9446V56.2161ZM164.15 52.6272C164.15 51.1542 163.946 50.0841 163.539 49.4167C163.141 48.7413 162.514 48.4036 161.659 48.4036C160.829 48.4036 160.215 48.725 159.816 49.3679C159.426 50.0027 159.218 50.9996 159.194 52.3586V56.6799C159.194 58.1285 159.389 59.2068 159.78 59.9148C160.178 60.6147 160.813 60.9646 161.684 60.9646C162.547 60.9646 163.169 60.6269 163.552 59.9514C163.934 59.276 164.133 58.2424 164.15 56.8508V52.6272Z" fill="#002A52"/>
<defs>
<filter id="filter0_d" x="120" y="27" width="63" height="63.5665" filterUnits="userSpaceOnUse" color-interpolation-filters="sRGB">
<feFlood flood-opacity="0" result="BackgroundImageFix"/>
<feColorMatrix in="SourceAlpha" type="matrix" values="0 0 0 0 0 0 0 0 0 0 0 0 0 0 0 0 0 0 127 0"/>
<feOffset dy="4"/>
<feGaussianBlur stdDeviation="2"/>
<feColorMatrix type="matrix" values="0 0 0 0 0 0 0 0 0 0 0 0 0 0 0 0 0 0 0.25 0"/>
<feBlend mode="normal" in2="BackgroundImageFix" result="effect1_dropShadow"/>
<feBlend mode="normal" in="SourceGraphic" in2="effect1_dropShadow" result="shape"/>
</filter>
</defs>
</svg>
