<svg width="648" height="213" viewBox="0 0 648 213" fill="none" xmlns="http://www.w3.org/2000/svg">
<circle cx="106.5" cy="106.5" r="106.5" fill="#002A52"/>
<circle cx="107" cy="107" r="80" fill="white"/>
<path d="M93.0034 107H78.6626V104.554L85.7671 96.8047C86.7925 95.6621 87.52 94.71 87.9497 93.9482C88.3892 93.1768 88.6089 92.4053 88.6089 91.6338C88.6089 90.6182 88.3208 89.7979 87.7446 89.1729C87.1782 88.5479 86.4116 88.2354 85.4448 88.2354C84.2925 88.2354 83.3989 88.5869 82.7642 89.29C82.1294 89.9932 81.812 90.9551 81.812 92.1758H78.2524C78.2524 90.877 78.5454 89.71 79.1313 88.6748C79.7271 87.6299 80.5718 86.8193 81.6655 86.2432C82.769 85.667 84.0386 85.3789 85.4741 85.3789C87.5444 85.3789 89.1753 85.9014 90.3667 86.9463C91.5679 87.9814 92.1685 89.417 92.1685 91.2529C92.1685 92.3174 91.8657 93.4355 91.2603 94.6074C90.6646 95.7695 89.6831 97.0928 88.3159 98.5771L83.1011 104.158H93.0034V107ZM109.615 98.0205C109.615 101.087 109.039 103.401 107.886 104.964C106.744 106.517 105 107.293 102.657 107.293C100.352 107.293 98.6138 106.536 97.4419 105.022C96.2798 103.499 95.6841 101.248 95.6548 98.2695V94.5781C95.6548 91.5117 96.2261 89.2119 97.3687 87.6787C98.521 86.1455 100.274 85.3789 102.627 85.3789C104.961 85.3789 106.7 86.126 107.842 87.6201C108.995 89.1143 109.585 91.3506 109.615 94.3291V98.0205ZM106.055 94.0361C106.055 92.0342 105.782 90.5693 105.235 89.6416C104.688 88.7041 103.819 88.2354 102.627 88.2354C101.465 88.2354 100.611 88.6797 100.064 89.5684C99.5171 90.4473 99.229 91.8242 99.1997 93.6992V98.5332C99.1997 100.525 99.478 102.01 100.035 102.986C100.591 103.963 101.465 104.451 102.657 104.451C103.799 104.451 104.644 104.002 105.191 103.104C105.738 102.195 106.026 100.779 106.055 98.8555V94.0361ZM126.666 98.0205C126.666 101.087 126.089 103.401 124.937 104.964C123.794 106.517 122.051 107.293 119.708 107.293C117.403 107.293 115.665 106.536 114.493 105.022C113.331 103.499 112.735 101.248 112.706 98.2695V94.5781C112.706 91.5117 113.277 89.2119 114.419 87.6787C115.572 86.1455 117.325 85.3789 119.678 85.3789C122.012 85.3789 123.75 86.126 124.893 87.6201C126.045 89.1143 126.636 91.3506 126.666 94.3291V98.0205ZM123.106 94.0361C123.106 92.0342 122.833 90.5693 122.286 89.6416C121.739 88.7041 120.87 88.2354 119.678 88.2354C118.516 88.2354 117.662 88.6797 117.115 89.5684C116.568 90.4473 116.28 91.8242 116.25 93.6992V98.5332C116.25 100.525 116.529 102.01 117.085 102.986C117.642 103.963 118.516 104.451 119.708 104.451C120.85 104.451 121.695 104.002 122.242 103.104C122.789 102.195 123.077 100.779 123.106 98.8555V94.0361ZM72.2246 124.824C72.2246 126.458 71.8535 127.764 71.1113 128.74C70.3691 129.71 69.373 130.195 68.123 130.195C66.9642 130.195 66.0365 129.814 65.3398 129.053V134.062H62.9668V119.434H65.1543L65.252 120.508C65.9486 119.661 66.8958 119.238 68.0938 119.238C69.3828 119.238 70.3919 119.72 71.1211 120.684C71.8568 121.641 72.2246 122.972 72.2246 124.678V124.824ZM69.8613 124.619C69.8613 123.564 69.6497 122.728 69.2266 122.109C68.8099 121.491 68.2109 121.182 67.4297 121.182C66.4596 121.182 65.763 121.582 65.3398 122.383V127.07C65.7695 127.891 66.4727 128.301 67.4492 128.301C68.2044 128.301 68.7936 127.998 69.2168 127.393C69.6465 126.781 69.8613 125.856 69.8613 124.619ZM73.7969 124.619C73.7969 123.584 74.002 122.653 74.4121 121.826C74.8223 120.993 75.3984 120.355 76.1406 119.912C76.8828 119.463 77.7357 119.238 78.6992 119.238C80.125 119.238 81.2806 119.697 82.166 120.615C83.0579 121.533 83.5397 122.751 83.6113 124.268L83.6211 124.824C83.6211 125.866 83.4193 126.797 83.0156 127.617C82.6185 128.438 82.0456 129.072 81.2969 129.521C80.5547 129.971 79.6953 130.195 78.7188 130.195C77.2279 130.195 76.0332 129.701 75.1348 128.711C74.2428 127.715 73.7969 126.39 73.7969 124.736V124.619ZM76.1699 124.824C76.1699 125.911 76.3945 126.764 76.8438 127.383C77.293 127.995 77.918 128.301 78.7188 128.301C79.5195 128.301 80.1413 127.988 80.584 127.363C81.0332 126.738 81.2578 125.824 81.2578 124.619C81.2578 123.551 81.0267 122.705 80.5645 122.08C80.1087 121.455 79.487 121.143 78.6992 121.143C77.9245 121.143 77.3092 121.452 76.8535 122.07C76.3978 122.682 76.1699 123.6 76.1699 124.824ZM88.1523 130H85.7793V119.434H88.1523V130ZM85.6328 116.689C85.6328 116.325 85.7467 116.022 85.9746 115.781C86.209 115.54 86.541 115.42 86.9707 115.42C87.4004 115.42 87.7324 115.54 87.9668 115.781C88.2012 116.022 88.3184 116.325 88.3184 116.689C88.3184 117.048 88.2012 117.347 87.9668 117.588C87.7324 117.822 87.4004 117.939 86.9707 117.939C86.541 117.939 86.209 117.822 85.9746 117.588C85.7467 117.347 85.6328 117.048 85.6328 116.689ZM92.9473 119.434L93.0156 120.654C93.7969 119.71 94.8223 119.238 96.0918 119.238C98.2923 119.238 99.4121 120.498 99.4512 123.018V130H97.0781V123.154C97.0781 122.484 96.9316 121.989 96.6387 121.67C96.3522 121.344 95.8802 121.182 95.2227 121.182C94.2656 121.182 93.5527 121.615 93.084 122.48V130H90.7109V119.434H92.9473ZM104.852 116.865V119.434H106.717V121.191H104.852V127.09C104.852 127.493 104.93 127.786 105.086 127.969C105.249 128.145 105.535 128.232 105.945 128.232C106.219 128.232 106.495 128.2 106.775 128.135V129.971C106.235 130.12 105.714 130.195 105.213 130.195C103.39 130.195 102.479 129.189 102.479 127.178V121.191H100.74V119.434H102.479V116.865H104.852ZM114.461 127.129C114.461 126.706 114.285 126.383 113.934 126.162C113.589 125.941 113.012 125.745 112.205 125.576C111.398 125.407 110.724 125.192 110.184 124.932C108.999 124.359 108.406 123.529 108.406 122.441C108.406 121.53 108.79 120.768 109.559 120.156C110.327 119.544 111.303 119.238 112.488 119.238C113.751 119.238 114.77 119.551 115.545 120.176C116.326 120.801 116.717 121.611 116.717 122.607H114.344C114.344 122.152 114.174 121.774 113.836 121.475C113.497 121.169 113.048 121.016 112.488 121.016C111.967 121.016 111.541 121.136 111.209 121.377C110.883 121.618 110.721 121.94 110.721 122.344C110.721 122.708 110.874 122.992 111.18 123.193C111.486 123.395 112.104 123.6 113.035 123.809C113.966 124.01 114.695 124.255 115.223 124.541C115.757 124.821 116.15 125.16 116.404 125.557C116.665 125.954 116.795 126.436 116.795 127.002C116.795 127.952 116.401 128.724 115.613 129.316C114.826 129.902 113.794 130.195 112.518 130.195C111.652 130.195 110.88 130.039 110.203 129.727C109.526 129.414 108.999 128.984 108.621 128.438C108.243 127.891 108.055 127.301 108.055 126.67H110.359C110.392 127.23 110.604 127.663 110.994 127.969C111.385 128.268 111.902 128.418 112.547 128.418C113.172 128.418 113.647 128.301 113.973 128.066C114.298 127.826 114.461 127.513 114.461 127.129ZM126.375 130H124.002V115H126.375V130ZM133.621 130.195C132.117 130.195 130.896 129.723 129.959 128.779C129.028 127.829 128.562 126.566 128.562 124.99V124.697C128.562 123.643 128.764 122.702 129.168 121.875C129.578 121.042 130.151 120.394 130.887 119.932C131.622 119.469 132.443 119.238 133.348 119.238C134.786 119.238 135.896 119.697 136.678 120.615C137.465 121.533 137.859 122.832 137.859 124.512V125.469H130.955C131.027 126.341 131.316 127.031 131.824 127.539C132.339 128.047 132.983 128.301 133.758 128.301C134.845 128.301 135.73 127.861 136.414 126.982L137.693 128.203C137.27 128.835 136.704 129.326 135.994 129.678C135.291 130.023 134.5 130.195 133.621 130.195ZM133.338 121.143C132.687 121.143 132.16 121.37 131.756 121.826C131.359 122.282 131.105 122.917 130.994 123.73H135.516V123.555C135.464 122.76 135.252 122.161 134.881 121.758C134.51 121.348 133.995 121.143 133.338 121.143ZM140.545 130V121.191H138.934V119.434H140.545V118.467C140.545 117.295 140.87 116.39 141.521 115.752C142.173 115.114 143.084 114.795 144.256 114.795C144.673 114.795 145.115 114.854 145.584 114.971L145.525 116.826C145.265 116.774 144.962 116.748 144.617 116.748C143.484 116.748 142.918 117.331 142.918 118.496V119.434H145.066V121.191H142.918V130H140.545ZM149.773 116.865V119.434H151.639V121.191H149.773V127.09C149.773 127.493 149.852 127.786 150.008 127.969C150.171 128.145 150.457 128.232 150.867 128.232C151.141 128.232 151.417 128.2 151.697 128.135V129.971C151.157 130.12 150.636 130.195 150.135 130.195C148.312 130.195 147.4 129.189 147.4 127.178V121.191H145.662V119.434H147.4V116.865H149.773Z" fill="#002A52"/>
<path d="M271.073 71.3682H263.383V68.4971H271.073V71.3682ZM285.824 71.3975H288.476V74.2539H285.824V79H282.265V74.2539H273.051L272.948 72.0859L282.147 57.6719H285.824V71.3975ZM276.684 71.3975H282.265V62.4912L282.001 62.96L276.684 71.3975ZM304.735 70.0205C304.735 73.0869 304.159 75.4014 303.007 76.9639C301.864 78.5166 300.121 79.293 297.777 79.293C295.473 79.293 293.734 78.5361 292.562 77.0225C291.4 75.499 290.805 73.248 290.775 70.2695V66.5781C290.775 63.5117 291.347 61.2119 292.489 59.6787C293.642 58.1455 295.395 57.3789 297.748 57.3789C300.082 57.3789 301.82 58.126 302.963 59.6201C304.115 61.1143 304.706 63.3506 304.735 66.3291V70.0205ZM301.176 66.0361C301.176 64.0342 300.902 62.5693 300.355 61.6416C299.809 60.7041 298.939 60.2354 297.748 60.2354C296.586 60.2354 295.731 60.6797 295.185 61.5684C294.638 62.4473 294.35 63.8242 294.32 65.6992V70.5332C294.32 72.5254 294.599 74.0098 295.155 74.9863C295.712 75.9629 296.586 76.4512 297.777 76.4512C298.92 76.4512 299.765 76.002 300.312 75.1035C300.858 74.1953 301.146 72.7793 301.176 70.8555V66.0361ZM324.228 73.8242C324.228 75.4583 323.856 76.7637 323.114 77.7402C322.372 78.7103 321.376 79.1953 320.126 79.1953C318.967 79.1953 318.039 78.8145 317.343 78.0527V83.0625H314.97V68.4336H317.157L317.255 69.5078C317.951 68.6615 318.899 68.2383 320.097 68.2383C321.386 68.2383 322.395 68.7201 323.124 69.6836C323.86 70.6406 324.228 71.972 324.228 73.6777V73.8242ZM321.864 73.6191C321.864 72.5645 321.653 71.7279 321.229 71.1094C320.813 70.4909 320.214 70.1816 319.433 70.1816C318.463 70.1816 317.766 70.582 317.343 71.3828V76.0703C317.772 76.8906 318.476 77.3008 319.452 77.3008C320.207 77.3008 320.797 76.998 321.22 76.3926C321.649 75.7806 321.864 74.8561 321.864 73.6191ZM325.8 73.6191C325.8 72.584 326.005 71.653 326.415 70.8262C326.825 69.9928 327.401 69.3548 328.144 68.9121C328.886 68.4629 329.739 68.2383 330.702 68.2383C332.128 68.2383 333.284 68.6973 334.169 69.6152C335.061 70.5332 335.543 71.7507 335.614 73.2676L335.624 73.8242C335.624 74.8659 335.422 75.7969 335.019 76.6172C334.621 77.4375 334.049 78.0723 333.3 78.5215C332.558 78.9707 331.698 79.1953 330.722 79.1953C329.231 79.1953 328.036 78.7005 327.138 77.7109C326.246 76.7148 325.8 75.39 325.8 73.7363V73.6191ZM328.173 73.8242C328.173 74.9115 328.397 75.7643 328.847 76.3828C329.296 76.9948 329.921 77.3008 330.722 77.3008C331.522 77.3008 332.144 76.9883 332.587 76.3633C333.036 75.7383 333.261 74.8236 333.261 73.6191C333.261 72.5514 333.03 71.7051 332.567 71.0801C332.112 70.4551 331.49 70.1426 330.702 70.1426C329.927 70.1426 329.312 70.4518 328.856 71.0703C328.401 71.6823 328.173 72.6003 328.173 73.8242ZM340.155 79H337.782V68.4336H340.155V79ZM337.636 65.6895C337.636 65.3249 337.75 65.0221 337.978 64.7812C338.212 64.5404 338.544 64.4199 338.974 64.4199C339.403 64.4199 339.735 64.5404 339.97 64.7812C340.204 65.0221 340.321 65.3249 340.321 65.6895C340.321 66.0475 340.204 66.347 339.97 66.5879C339.735 66.8223 339.403 66.9395 338.974 66.9395C338.544 66.9395 338.212 66.8223 337.978 66.5879C337.75 66.347 337.636 66.0475 337.636 65.6895ZM344.95 68.4336L345.019 69.6543C345.8 68.7103 346.825 68.2383 348.095 68.2383C350.295 68.2383 351.415 69.498 351.454 72.0176V79H349.081V72.1543C349.081 71.4837 348.935 70.9889 348.642 70.6699C348.355 70.3444 347.883 70.1816 347.226 70.1816C346.269 70.1816 345.556 70.6146 345.087 71.4805V79H342.714V68.4336H344.95ZM356.854 65.8652V68.4336H358.72V70.1914H356.854V76.0898C356.854 76.4935 356.933 76.7865 357.089 76.9688C357.252 77.1445 357.538 77.2324 357.948 77.2324C358.222 77.2324 358.498 77.1999 358.778 77.1348V78.9707C358.238 79.1204 357.717 79.1953 357.216 79.1953C355.393 79.1953 354.481 78.1895 354.481 76.1777V70.1914H352.743V68.4336H354.481V65.8652H356.854ZM366.464 76.1289C366.464 75.7057 366.288 75.3835 365.937 75.1621C365.591 74.9408 365.015 74.7454 364.208 74.5762C363.401 74.4069 362.727 74.1921 362.187 73.9316C361.002 73.3587 360.409 72.5286 360.409 71.4414C360.409 70.5299 360.793 69.7682 361.562 69.1562C362.33 68.5443 363.306 68.2383 364.491 68.2383C365.754 68.2383 366.773 68.5508 367.548 69.1758C368.329 69.8008 368.72 70.6113 368.72 71.6074H366.347C366.347 71.1517 366.177 70.7741 365.839 70.4746C365.5 70.1686 365.051 70.0156 364.491 70.0156C363.97 70.0156 363.544 70.1361 363.212 70.377C362.886 70.6178 362.724 70.9401 362.724 71.3438C362.724 71.7083 362.877 71.9915 363.183 72.1934C363.489 72.3952 364.107 72.6003 365.038 72.8086C365.969 73.0104 366.698 73.2546 367.226 73.541C367.759 73.821 368.153 74.1595 368.407 74.5566C368.668 74.9538 368.798 75.4355 368.798 76.002C368.798 76.9525 368.404 77.724 367.616 78.3164C366.828 78.9023 365.797 79.1953 364.521 79.1953C363.655 79.1953 362.883 79.0391 362.206 78.7266C361.529 78.4141 361.002 77.9844 360.624 77.4375C360.246 76.8906 360.058 76.3014 360.058 75.6699H362.362C362.395 76.2298 362.606 76.6628 362.997 76.9688C363.388 77.2682 363.905 77.418 364.55 77.418C365.175 77.418 365.65 77.3008 365.976 77.0664C366.301 76.8255 366.464 76.513 366.464 76.1289Z" fill="#002A52"/>
<path d="M401.116 105L381.116 93.453V116.547L401.116 105ZM246 107H383.116V103H246V107Z" fill="#002A52"/>
<path d="M523.301 105H519.756V87.876L514.527 89.6631V86.6602L522.847 83.5986H523.301V105ZM541.788 83.5693V86.5137H541.348C539.356 86.543 537.764 87.0898 536.573 88.1543C535.381 89.2188 534.673 90.7275 534.449 92.6807C535.591 91.4795 537.051 90.8789 538.829 90.8789C540.713 90.8789 542.198 91.543 543.282 92.8711C544.375 94.1992 544.922 95.9131 544.922 98.0127C544.922 100.181 544.283 101.938 543.003 103.286C541.734 104.624 540.064 105.293 537.994 105.293C535.865 105.293 534.136 104.507 532.808 102.935C531.49 101.362 530.831 99.3018 530.831 96.7529V95.5371C530.831 91.7969 531.739 88.8672 533.555 86.748C535.381 84.6289 538.003 83.5693 541.421 83.5693H541.788ZM537.964 93.75C537.183 93.75 536.465 93.9697 535.811 94.4092C535.167 94.8486 534.693 95.4346 534.39 96.167V97.251C534.39 98.833 534.722 100.093 535.386 101.03C536.05 101.958 536.91 102.422 537.964 102.422C539.019 102.422 539.854 102.026 540.469 101.235C541.084 100.444 541.392 99.4043 541.392 98.1152C541.392 96.8262 541.08 95.7764 540.455 94.9658C539.83 94.1553 539 93.75 537.964 93.75ZM561.666 96.0205C561.666 99.0869 561.089 101.401 559.937 102.964C558.794 104.517 557.051 105.293 554.708 105.293C552.403 105.293 550.665 104.536 549.493 103.022C548.331 101.499 547.735 99.248 547.706 96.2695V92.5781C547.706 89.5117 548.277 87.2119 549.419 85.6787C550.572 84.1455 552.325 83.3789 554.678 83.3789C557.012 83.3789 558.75 84.126 559.893 85.6201C561.045 87.1143 561.636 89.3506 561.666 92.3291V96.0205ZM558.106 92.0361C558.106 90.0342 557.833 88.5693 557.286 87.6416C556.739 86.7041 555.87 86.2354 554.678 86.2354C553.516 86.2354 552.662 86.6797 552.115 87.5684C551.568 88.4473 551.28 89.8242 551.25 91.6992V96.5332C551.25 98.5254 551.529 100.01 552.085 100.986C552.642 101.963 553.516 102.451 554.708 102.451C555.85 102.451 556.695 102.002 557.242 101.104C557.789 100.195 558.077 98.7793 558.106 96.8555V92.0361ZM507.225 122.824C507.225 124.458 506.854 125.764 506.111 126.74C505.369 127.71 504.373 128.195 503.123 128.195C501.964 128.195 501.036 127.814 500.34 127.053V132.062H497.967V117.434H500.154L500.252 118.508C500.949 117.661 501.896 117.238 503.094 117.238C504.383 117.238 505.392 117.72 506.121 118.684C506.857 119.641 507.225 120.972 507.225 122.678V122.824ZM504.861 122.619C504.861 121.564 504.65 120.728 504.227 120.109C503.81 119.491 503.211 119.182 502.43 119.182C501.46 119.182 500.763 119.582 500.34 120.383V125.07C500.77 125.891 501.473 126.301 502.449 126.301C503.204 126.301 503.794 125.998 504.217 125.393C504.646 124.781 504.861 123.856 504.861 122.619ZM508.797 122.619C508.797 121.584 509.002 120.653 509.412 119.826C509.822 118.993 510.398 118.355 511.141 117.912C511.883 117.463 512.736 117.238 513.699 117.238C515.125 117.238 516.281 117.697 517.166 118.615C518.058 119.533 518.54 120.751 518.611 122.268L518.621 122.824C518.621 123.866 518.419 124.797 518.016 125.617C517.618 126.438 517.046 127.072 516.297 127.521C515.555 127.971 514.695 128.195 513.719 128.195C512.228 128.195 511.033 127.701 510.135 126.711C509.243 125.715 508.797 124.39 508.797 122.736V122.619ZM511.17 122.824C511.17 123.911 511.395 124.764 511.844 125.383C512.293 125.995 512.918 126.301 513.719 126.301C514.52 126.301 515.141 125.988 515.584 125.363C516.033 124.738 516.258 123.824 516.258 122.619C516.258 121.551 516.027 120.705 515.564 120.08C515.109 119.455 514.487 119.143 513.699 119.143C512.924 119.143 512.309 119.452 511.854 120.07C511.398 120.682 511.17 121.6 511.17 122.824ZM523.152 128H520.779V117.434H523.152V128ZM520.633 114.689C520.633 114.325 520.747 114.022 520.975 113.781C521.209 113.54 521.541 113.42 521.971 113.42C522.4 113.42 522.732 113.54 522.967 113.781C523.201 114.022 523.318 114.325 523.318 114.689C523.318 115.048 523.201 115.347 522.967 115.588C522.732 115.822 522.4 115.939 521.971 115.939C521.541 115.939 521.209 115.822 520.975 115.588C520.747 115.347 520.633 115.048 520.633 114.689ZM527.947 117.434L528.016 118.654C528.797 117.71 529.822 117.238 531.092 117.238C533.292 117.238 534.412 118.498 534.451 121.018V128H532.078V121.154C532.078 120.484 531.932 119.989 531.639 119.67C531.352 119.344 530.88 119.182 530.223 119.182C529.266 119.182 528.553 119.615 528.084 120.48V128H525.711V117.434H527.947ZM539.852 114.865V117.434H541.717V119.191H539.852V125.09C539.852 125.493 539.93 125.786 540.086 125.969C540.249 126.145 540.535 126.232 540.945 126.232C541.219 126.232 541.495 126.2 541.775 126.135V127.971C541.235 128.12 540.714 128.195 540.213 128.195C538.39 128.195 537.479 127.189 537.479 125.178V119.191H535.74V117.434H537.479V114.865H539.852ZM549.461 125.129C549.461 124.706 549.285 124.383 548.934 124.162C548.589 123.941 548.012 123.745 547.205 123.576C546.398 123.407 545.724 123.192 545.184 122.932C543.999 122.359 543.406 121.529 543.406 120.441C543.406 119.53 543.79 118.768 544.559 118.156C545.327 117.544 546.303 117.238 547.488 117.238C548.751 117.238 549.77 117.551 550.545 118.176C551.326 118.801 551.717 119.611 551.717 120.607H549.344C549.344 120.152 549.174 119.774 548.836 119.475C548.497 119.169 548.048 119.016 547.488 119.016C546.967 119.016 546.541 119.136 546.209 119.377C545.883 119.618 545.721 119.94 545.721 120.344C545.721 120.708 545.874 120.992 546.18 121.193C546.486 121.395 547.104 121.6 548.035 121.809C548.966 122.01 549.695 122.255 550.223 122.541C550.757 122.821 551.15 123.16 551.404 123.557C551.665 123.954 551.795 124.436 551.795 125.002C551.795 125.952 551.401 126.724 550.613 127.316C549.826 127.902 548.794 128.195 547.518 128.195C546.652 128.195 545.88 128.039 545.203 127.727C544.526 127.414 543.999 126.984 543.621 126.438C543.243 125.891 543.055 125.301 543.055 124.67H545.359C545.392 125.23 545.604 125.663 545.994 125.969C546.385 126.268 546.902 126.418 547.547 126.418C548.172 126.418 548.647 126.301 548.973 126.066C549.298 125.826 549.461 125.513 549.461 125.129ZM561.375 128H559.002V113H561.375V128ZM568.621 128.195C567.117 128.195 565.896 127.723 564.959 126.779C564.028 125.829 563.562 124.566 563.562 122.99V122.697C563.562 121.643 563.764 120.702 564.168 119.875C564.578 119.042 565.151 118.394 565.887 117.932C566.622 117.469 567.443 117.238 568.348 117.238C569.786 117.238 570.896 117.697 571.678 118.615C572.465 119.533 572.859 120.832 572.859 122.512V123.469H565.955C566.027 124.341 566.316 125.031 566.824 125.539C567.339 126.047 567.983 126.301 568.758 126.301C569.845 126.301 570.73 125.861 571.414 124.982L572.693 126.203C572.27 126.835 571.704 127.326 570.994 127.678C570.291 128.023 569.5 128.195 568.621 128.195ZM568.338 119.143C567.687 119.143 567.16 119.37 566.756 119.826C566.359 120.282 566.105 120.917 565.994 121.73H570.516V121.555C570.464 120.76 570.252 120.161 569.881 119.758C569.51 119.348 568.995 119.143 568.338 119.143ZM575.545 128V119.191H573.934V117.434H575.545V116.467C575.545 115.295 575.87 114.39 576.521 113.752C577.173 113.114 578.084 112.795 579.256 112.795C579.673 112.795 580.115 112.854 580.584 112.971L580.525 114.826C580.265 114.774 579.962 114.748 579.617 114.748C578.484 114.748 577.918 115.331 577.918 116.496V117.434H580.066V119.191H577.918V128H575.545ZM584.773 114.865V117.434H586.639V119.191H584.773V125.09C584.773 125.493 584.852 125.786 585.008 125.969C585.171 126.145 585.457 126.232 585.867 126.232C586.141 126.232 586.417 126.2 586.697 126.135V127.971C586.157 128.12 585.636 128.195 585.135 128.195C583.312 128.195 582.4 127.189 582.4 125.178V119.191H580.662V117.434H582.4V114.865H584.773Z" fill="#002A52"/>
<path d="M648 108.082C643.135 164.391 594.48 207.226 539.022 205.978C481.111 204.68 431.796 155.638 435.163 97.2928C438.369 41.8214 488.015 -2.51638 546.332 0.111038L545.283 24.4804C499.724 22.477 460.874 56.3132 458.37 98.6393C455.73 143.174 494.258 180.59 539.589 181.567C582.957 182.52 620.986 149.833 624.785 106.85L648 108.082Z" fill="#002A52"/>
</svg>
