<svg width="685" height="229" viewBox="0 0 685 229" fill="none" xmlns="http://www.w3.org/2000/svg">
<path d="M289.904 55.3652L292.922 50.1504H296.877L292.028 57.958L297.038 66H293.112L289.948 60.5801L286.799 66H282.844L287.854 57.958L283.02 50.1504H286.945L289.904 55.3652ZM308.713 66H305.168V48.876L299.938 50.6631V47.6602L308.259 44.5986H308.713V66ZM330.026 57.0205C330.026 60.0869 329.45 62.4014 328.298 63.9639C327.155 65.5166 325.412 66.293 323.068 66.293C320.764 66.293 319.025 65.5361 317.854 64.0225C316.691 62.499 316.096 60.248 316.066 57.2695V53.5781C316.066 50.5117 316.638 48.2119 317.78 46.6787C318.933 45.1455 320.686 44.3789 323.039 44.3789C325.373 44.3789 327.111 45.126 328.254 46.6201C329.406 48.1143 329.997 50.3506 330.026 53.3291V57.0205ZM326.467 53.0361C326.467 51.0342 326.193 49.5693 325.646 48.6416C325.1 47.7041 324.23 47.2354 323.039 47.2354C321.877 47.2354 321.022 47.6797 320.476 48.5684C319.929 49.4473 319.641 50.8242 319.611 52.6992V57.5332C319.611 59.5254 319.89 61.0098 320.446 61.9863C321.003 62.9629 321.877 63.4512 323.068 63.4512C324.211 63.4512 325.056 63.002 325.603 62.1035C326.149 61.1953 326.438 59.7793 326.467 57.8555V53.0361ZM333.029 48.7734C333.029 47.4844 333.444 46.4297 334.274 45.6094C335.104 44.7793 336.193 44.3643 337.541 44.3643C338.908 44.3643 340.002 44.7793 340.822 45.6094C341.652 46.4297 342.067 47.5088 342.067 48.8467V49.9014C342.067 51.1807 341.652 52.2305 340.822 53.0508C340.002 53.8711 338.918 54.2812 337.57 54.2812C336.252 54.2812 335.163 53.8809 334.304 53.0801C333.454 52.2695 333.029 51.1807 333.029 49.8135V48.7734ZM335.52 49.9014C335.52 50.5752 335.705 51.1221 336.076 51.542C336.457 51.9521 336.955 52.1572 337.57 52.1572C338.176 52.1572 338.664 51.9521 339.035 51.542C339.406 51.1221 339.592 50.5557 339.592 49.8428V48.7734C339.592 48.0996 339.401 47.5527 339.021 47.1328C338.649 46.7129 338.156 46.5029 337.541 46.5029C336.926 46.5029 336.433 46.7178 336.062 47.1475C335.7 47.5674 335.52 48.124 335.52 48.8174V49.9014ZM343.283 60.7705C343.283 59.4619 343.708 58.4023 344.558 57.5918C345.407 56.7812 346.491 56.376 347.81 56.376C349.138 56.376 350.222 56.7812 351.062 57.5918C351.911 58.4023 352.336 59.4961 352.336 60.873V61.9131C352.336 63.1826 351.926 64.2324 351.105 65.0625C350.295 65.8828 349.206 66.293 347.839 66.293C346.472 66.293 345.368 65.8877 344.528 65.0771C343.698 64.2568 343.283 63.1777 343.283 61.8398V60.7705ZM345.773 61.9131C345.773 62.5771 345.964 63.124 346.345 63.5537C346.735 63.9736 347.233 64.1836 347.839 64.1836C348.464 64.1836 348.952 63.9834 349.304 63.583C349.665 63.1729 349.846 62.6016 349.846 61.8691V60.7705C349.846 60.0869 349.655 59.54 349.274 59.1299C348.894 58.7197 348.405 58.5146 347.81 58.5146C347.204 58.5146 346.711 58.7197 346.33 59.1299C345.959 59.54 345.773 60.1064 345.773 60.8291V61.9131ZM338.303 64.4033L336.472 63.3486L346.887 46.6787L348.718 47.7334L338.303 64.4033Z" fill="#002A52"/>
<path d="M403.116 114L383.116 102.453V125.547L403.116 114ZM248 116H385.116V112H248V116Z" fill="#002A52"/>
<path d="M277.941 84.3828H269.523V82.4102H277.941V84.3828ZM277.941 88.5234H269.523V86.5605H277.941V88.5234ZM291.77 92H289.406V80.584L285.92 81.7754V79.7734L291.467 77.7324H291.77V92ZM304.094 77.7129V79.6758H303.801C302.473 79.6953 301.411 80.0599 300.617 80.7695C299.823 81.4792 299.351 82.485 299.201 83.7871C299.963 82.9863 300.936 82.5859 302.121 82.5859C303.378 82.5859 304.367 83.0286 305.09 83.9141C305.819 84.7995 306.184 85.9421 306.184 87.3418C306.184 88.7871 305.757 89.959 304.904 90.8574C304.058 91.7493 302.945 92.1953 301.564 92.1953C300.145 92.1953 298.993 91.6712 298.107 90.623C297.229 89.5749 296.789 88.2012 296.789 86.502V85.6914C296.789 83.1979 297.395 81.2448 298.605 79.832C299.823 78.4193 301.571 77.7129 303.85 77.7129H304.094ZM301.545 84.5C301.024 84.5 300.546 84.6465 300.109 84.9395C299.68 85.2324 299.364 85.623 299.162 86.1113V86.834C299.162 87.8887 299.383 88.7285 299.826 89.3535C300.269 89.972 300.842 90.2812 301.545 90.2812C302.248 90.2812 302.805 90.0176 303.215 89.4902C303.625 88.9629 303.83 88.2695 303.83 87.4102C303.83 86.5508 303.622 85.8509 303.205 85.3105C302.788 84.7702 302.235 84.5 301.545 84.5ZM322.463 86.8242C322.463 88.4583 322.092 89.7637 321.35 90.7402C320.607 91.7103 319.611 92.1953 318.361 92.1953C317.202 92.1953 316.275 91.8145 315.578 91.0527V96.0625H313.205V81.4336H315.393L315.49 82.5078C316.187 81.6615 317.134 81.2383 318.332 81.2383C319.621 81.2383 320.63 81.7201 321.359 82.6836C322.095 83.6406 322.463 84.972 322.463 86.6777V86.8242ZM320.1 86.6191C320.1 85.5645 319.888 84.7279 319.465 84.1094C319.048 83.4909 318.449 83.1816 317.668 83.1816C316.698 83.1816 316.001 83.582 315.578 84.3828V89.0703C316.008 89.8906 316.711 90.3008 317.688 90.3008C318.443 90.3008 319.032 89.998 319.455 89.3926C319.885 88.7806 320.1 87.8561 320.1 86.6191ZM324.035 86.6191C324.035 85.584 324.24 84.653 324.65 83.8262C325.061 82.9928 325.637 82.3548 326.379 81.9121C327.121 81.4629 327.974 81.2383 328.938 81.2383C330.363 81.2383 331.519 81.6973 332.404 82.6152C333.296 83.5332 333.778 84.7507 333.85 86.2676L333.859 86.8242C333.859 87.8659 333.658 88.7969 333.254 89.6172C332.857 90.4375 332.284 91.0723 331.535 91.5215C330.793 91.9707 329.934 92.1953 328.957 92.1953C327.466 92.1953 326.271 91.7005 325.373 90.7109C324.481 89.7148 324.035 88.39 324.035 86.7363V86.6191ZM326.408 86.8242C326.408 87.9115 326.633 88.7643 327.082 89.3828C327.531 89.9948 328.156 90.3008 328.957 90.3008C329.758 90.3008 330.38 89.9883 330.822 89.3633C331.271 88.7383 331.496 87.8236 331.496 86.6191C331.496 85.5514 331.265 84.7051 330.803 84.0801C330.347 83.4551 329.725 83.1426 328.938 83.1426C328.163 83.1426 327.548 83.4518 327.092 84.0703C326.636 84.6823 326.408 85.6003 326.408 86.8242ZM338.391 92H336.018V81.4336H338.391V92ZM335.871 78.6895C335.871 78.3249 335.985 78.0221 336.213 77.7812C336.447 77.5404 336.779 77.4199 337.209 77.4199C337.639 77.4199 337.971 77.5404 338.205 77.7812C338.439 78.0221 338.557 78.3249 338.557 78.6895C338.557 79.0475 338.439 79.347 338.205 79.5879C337.971 79.8223 337.639 79.9395 337.209 79.9395C336.779 79.9395 336.447 79.8223 336.213 79.5879C335.985 79.347 335.871 79.0475 335.871 78.6895ZM343.186 81.4336L343.254 82.6543C344.035 81.7103 345.061 81.2383 346.33 81.2383C348.531 81.2383 349.65 82.498 349.689 85.0176V92H347.316V85.1543C347.316 84.4837 347.17 83.9889 346.877 83.6699C346.59 83.3444 346.118 83.1816 345.461 83.1816C344.504 83.1816 343.791 83.6146 343.322 84.4805V92H340.949V81.4336H343.186ZM355.09 78.8652V81.4336H356.955V83.1914H355.09V89.0898C355.09 89.4935 355.168 89.7865 355.324 89.9688C355.487 90.1445 355.773 90.2324 356.184 90.2324C356.457 90.2324 356.734 90.1999 357.014 90.1348V91.9707C356.473 92.1204 355.952 92.1953 355.451 92.1953C353.628 92.1953 352.717 91.1895 352.717 89.1777V83.1914H350.979V81.4336H352.717V78.8652H355.09ZM364.699 89.1289C364.699 88.7057 364.523 88.3835 364.172 88.1621C363.827 87.9408 363.251 87.7454 362.443 87.5762C361.636 87.4069 360.962 87.1921 360.422 86.9316C359.237 86.3587 358.645 85.5286 358.645 84.4414C358.645 83.5299 359.029 82.7682 359.797 82.1562C360.565 81.5443 361.542 81.2383 362.727 81.2383C363.99 81.2383 365.008 81.5508 365.783 82.1758C366.564 82.8008 366.955 83.6113 366.955 84.6074H364.582C364.582 84.1517 364.413 83.7741 364.074 83.4746C363.736 83.1686 363.286 83.0156 362.727 83.0156C362.206 83.0156 361.779 83.1361 361.447 83.377C361.122 83.6178 360.959 83.9401 360.959 84.3438C360.959 84.7083 361.112 84.9915 361.418 85.1934C361.724 85.3952 362.342 85.6003 363.273 85.8086C364.204 86.0104 364.934 86.2546 365.461 86.541C365.995 86.821 366.389 87.1595 366.643 87.5566C366.903 87.9538 367.033 88.4355 367.033 89.002C367.033 89.9525 366.639 90.724 365.852 91.3164C365.064 91.9023 364.032 92.1953 362.756 92.1953C361.89 92.1953 361.118 92.0391 360.441 91.7266C359.764 91.4141 359.237 90.9844 358.859 90.4375C358.482 89.8906 358.293 89.3014 358.293 88.6699H360.598C360.63 89.2298 360.842 89.6628 361.232 89.9688C361.623 90.2682 362.141 90.418 362.785 90.418C363.41 90.418 363.885 90.3008 364.211 90.0664C364.536 89.8255 364.699 89.513 364.699 89.1289Z" fill="#002A52"/>
<circle cx="544.5" cy="122" r="106.5" fill="#002A52"/>
<circle cx="545" cy="122.5" r="80" fill="white"/>
<path d="M530.659 120.5H527.114V103.376L521.885 105.163V102.16L530.205 99.0986H530.659V120.5ZM552.266 101.149L543.74 120.5H540.005L548.516 102.028H537.485V99.1719H552.266V101.149ZM566.196 99.0693V102.014H565.757C563.765 102.043 562.173 102.59 560.981 103.654C559.79 104.719 559.082 106.228 558.857 108.181C560 106.979 561.46 106.379 563.237 106.379C565.122 106.379 566.606 107.043 567.69 108.371C568.784 109.699 569.331 111.413 569.331 113.513C569.331 115.681 568.691 117.438 567.412 118.786C566.143 120.124 564.473 120.793 562.402 120.793C560.273 120.793 558.545 120.007 557.217 118.435C555.898 116.862 555.239 114.802 555.239 112.253V111.037C555.239 107.297 556.147 104.367 557.964 102.248C559.79 100.129 562.412 99.0693 565.83 99.0693H566.196ZM562.373 109.25C561.592 109.25 560.874 109.47 560.22 109.909C559.575 110.349 559.102 110.935 558.799 111.667V112.751C558.799 114.333 559.131 115.593 559.795 116.53C560.459 117.458 561.318 117.922 562.373 117.922C563.428 117.922 564.263 117.526 564.878 116.735C565.493 115.944 565.801 114.904 565.801 113.615C565.801 112.326 565.488 111.276 564.863 110.466C564.238 109.655 563.408 109.25 562.373 109.25Z" fill="#002A52"/>
<path d="M510.225 138.324C510.225 139.958 509.854 141.264 509.111 142.24C508.369 143.21 507.373 143.695 506.123 143.695C504.964 143.695 504.036 143.314 503.34 142.553V147.562H500.967V132.934H503.154L503.252 134.008C503.949 133.161 504.896 132.738 506.094 132.738C507.383 132.738 508.392 133.22 509.121 134.184C509.857 135.141 510.225 136.472 510.225 138.178V138.324ZM507.861 138.119C507.861 137.064 507.65 136.228 507.227 135.609C506.81 134.991 506.211 134.682 505.43 134.682C504.46 134.682 503.763 135.082 503.34 135.883V140.57C503.77 141.391 504.473 141.801 505.449 141.801C506.204 141.801 506.794 141.498 507.217 140.893C507.646 140.281 507.861 139.356 507.861 138.119ZM511.797 138.119C511.797 137.084 512.002 136.153 512.412 135.326C512.822 134.493 513.398 133.855 514.141 133.412C514.883 132.963 515.736 132.738 516.699 132.738C518.125 132.738 519.281 133.197 520.166 134.115C521.058 135.033 521.54 136.251 521.611 137.768L521.621 138.324C521.621 139.366 521.419 140.297 521.016 141.117C520.618 141.938 520.046 142.572 519.297 143.021C518.555 143.471 517.695 143.695 516.719 143.695C515.228 143.695 514.033 143.201 513.135 142.211C512.243 141.215 511.797 139.89 511.797 138.236V138.119ZM514.17 138.324C514.17 139.411 514.395 140.264 514.844 140.883C515.293 141.495 515.918 141.801 516.719 141.801C517.52 141.801 518.141 141.488 518.584 140.863C519.033 140.238 519.258 139.324 519.258 138.119C519.258 137.051 519.027 136.205 518.564 135.58C518.109 134.955 517.487 134.643 516.699 134.643C515.924 134.643 515.309 134.952 514.854 135.57C514.398 136.182 514.17 137.1 514.17 138.324ZM526.152 143.5H523.779V132.934H526.152V143.5ZM523.633 130.189C523.633 129.825 523.747 129.522 523.975 129.281C524.209 129.04 524.541 128.92 524.971 128.92C525.4 128.92 525.732 129.04 525.967 129.281C526.201 129.522 526.318 129.825 526.318 130.189C526.318 130.548 526.201 130.847 525.967 131.088C525.732 131.322 525.4 131.439 524.971 131.439C524.541 131.439 524.209 131.322 523.975 131.088C523.747 130.847 523.633 130.548 523.633 130.189ZM530.947 132.934L531.016 134.154C531.797 133.21 532.822 132.738 534.092 132.738C536.292 132.738 537.412 133.998 537.451 136.518V143.5H535.078V136.654C535.078 135.984 534.932 135.489 534.639 135.17C534.352 134.844 533.88 134.682 533.223 134.682C532.266 134.682 531.553 135.115 531.084 135.98V143.5H528.711V132.934H530.947ZM542.852 130.365V132.934H544.717V134.691H542.852V140.59C542.852 140.993 542.93 141.286 543.086 141.469C543.249 141.645 543.535 141.732 543.945 141.732C544.219 141.732 544.495 141.7 544.775 141.635V143.471C544.235 143.62 543.714 143.695 543.213 143.695C541.39 143.695 540.479 142.689 540.479 140.678V134.691H538.74V132.934H540.479V130.365H542.852ZM552.461 140.629C552.461 140.206 552.285 139.883 551.934 139.662C551.589 139.441 551.012 139.245 550.205 139.076C549.398 138.907 548.724 138.692 548.184 138.432C546.999 137.859 546.406 137.029 546.406 135.941C546.406 135.03 546.79 134.268 547.559 133.656C548.327 133.044 549.303 132.738 550.488 132.738C551.751 132.738 552.77 133.051 553.545 133.676C554.326 134.301 554.717 135.111 554.717 136.107H552.344C552.344 135.652 552.174 135.274 551.836 134.975C551.497 134.669 551.048 134.516 550.488 134.516C549.967 134.516 549.541 134.636 549.209 134.877C548.883 135.118 548.721 135.44 548.721 135.844C548.721 136.208 548.874 136.492 549.18 136.693C549.486 136.895 550.104 137.1 551.035 137.309C551.966 137.51 552.695 137.755 553.223 138.041C553.757 138.321 554.15 138.66 554.404 139.057C554.665 139.454 554.795 139.936 554.795 140.502C554.795 141.452 554.401 142.224 553.613 142.816C552.826 143.402 551.794 143.695 550.518 143.695C549.652 143.695 548.88 143.539 548.203 143.227C547.526 142.914 546.999 142.484 546.621 141.938C546.243 141.391 546.055 140.801 546.055 140.17H548.359C548.392 140.73 548.604 141.163 548.994 141.469C549.385 141.768 549.902 141.918 550.547 141.918C551.172 141.918 551.647 141.801 551.973 141.566C552.298 141.326 552.461 141.013 552.461 140.629ZM564.375 143.5H562.002V128.5H564.375V143.5ZM571.621 143.695C570.117 143.695 568.896 143.223 567.959 142.279C567.028 141.329 566.562 140.066 566.562 138.49V138.197C566.562 137.143 566.764 136.202 567.168 135.375C567.578 134.542 568.151 133.894 568.887 133.432C569.622 132.969 570.443 132.738 571.348 132.738C572.786 132.738 573.896 133.197 574.678 134.115C575.465 135.033 575.859 136.332 575.859 138.012V138.969H568.955C569.027 139.841 569.316 140.531 569.824 141.039C570.339 141.547 570.983 141.801 571.758 141.801C572.845 141.801 573.73 141.361 574.414 140.482L575.693 141.703C575.27 142.335 574.704 142.826 573.994 143.178C573.291 143.523 572.5 143.695 571.621 143.695ZM571.338 134.643C570.687 134.643 570.16 134.87 569.756 135.326C569.359 135.782 569.105 136.417 568.994 137.23H573.516V137.055C573.464 136.26 573.252 135.661 572.881 135.258C572.51 134.848 571.995 134.643 571.338 134.643ZM578.545 143.5V134.691H576.934V132.934H578.545V131.967C578.545 130.795 578.87 129.89 579.521 129.252C580.173 128.614 581.084 128.295 582.256 128.295C582.673 128.295 583.115 128.354 583.584 128.471L583.525 130.326C583.265 130.274 582.962 130.248 582.617 130.248C581.484 130.248 580.918 130.831 580.918 131.996V132.934H583.066V134.691H580.918V143.5H578.545ZM587.773 130.365V132.934H589.639V134.691H587.773V140.59C587.773 140.993 587.852 141.286 588.008 141.469C588.171 141.645 588.457 141.732 588.867 141.732C589.141 141.732 589.417 141.7 589.697 141.635V143.471C589.157 143.62 588.636 143.695 588.135 143.695C586.312 143.695 585.4 142.689 585.4 140.678V134.691H583.662V132.934H585.4V130.365H587.773Z" fill="black"/>
<path d="M618 0L573 67.5L598.5 124H684.5L618 0Z" fill="white"/>
<path d="M88.3013 125H84.7563V107.876L79.5269 109.663V106.66L87.8472 103.599H88.3013V125ZM106.788 103.569V106.514H106.348C104.356 106.543 102.764 107.09 101.573 108.154C100.381 109.219 99.6733 110.728 99.4487 112.681C100.591 111.479 102.051 110.879 103.829 110.879C105.713 110.879 107.198 111.543 108.282 112.871C109.375 114.199 109.922 115.913 109.922 118.013C109.922 120.181 109.283 121.938 108.003 123.286C106.734 124.624 105.064 125.293 102.994 125.293C100.865 125.293 99.1362 124.507 97.8081 122.935C96.4897 121.362 95.8306 119.302 95.8306 116.753V115.537C95.8306 111.797 96.7388 108.867 98.5552 106.748C100.381 104.629 103.003 103.569 106.421 103.569H106.788ZM102.964 113.75C102.183 113.75 101.465 113.97 100.811 114.409C100.167 114.849 99.6929 115.435 99.3901 116.167V117.251C99.3901 118.833 99.7222 120.093 100.386 121.03C101.05 121.958 101.91 122.422 102.964 122.422C104.019 122.422 104.854 122.026 105.469 121.235C106.084 120.444 106.392 119.404 106.392 118.115C106.392 116.826 106.08 115.776 105.455 114.966C104.83 114.155 104 113.75 102.964 113.75ZM126.666 116.021C126.666 119.087 126.089 121.401 124.937 122.964C123.794 124.517 122.051 125.293 119.708 125.293C117.403 125.293 115.665 124.536 114.493 123.022C113.331 121.499 112.735 119.248 112.706 116.27V112.578C112.706 109.512 113.277 107.212 114.419 105.679C115.572 104.146 117.325 103.379 119.678 103.379C122.012 103.379 123.75 104.126 124.893 105.62C126.045 107.114 126.636 109.351 126.666 112.329V116.021ZM123.106 112.036C123.106 110.034 122.833 108.569 122.286 107.642C121.739 106.704 120.87 106.235 119.678 106.235C118.516 106.235 117.662 106.68 117.115 107.568C116.568 108.447 116.28 109.824 116.25 111.699V116.533C116.25 118.525 116.529 120.01 117.085 120.986C117.642 121.963 118.516 122.451 119.708 122.451C120.85 122.451 121.695 122.002 122.242 121.104C122.789 120.195 123.077 118.779 123.106 116.855V112.036ZM72.2246 142.824C72.2246 144.458 71.8535 145.764 71.1113 146.74C70.3691 147.71 69.373 148.195 68.123 148.195C66.9642 148.195 66.0365 147.814 65.3398 147.053V152.062H62.9668V137.434H65.1543L65.252 138.508C65.9486 137.661 66.8958 137.238 68.0938 137.238C69.3828 137.238 70.3919 137.72 71.1211 138.684C71.8568 139.641 72.2246 140.972 72.2246 142.678V142.824ZM69.8613 142.619C69.8613 141.564 69.6497 140.728 69.2266 140.109C68.8099 139.491 68.2109 139.182 67.4297 139.182C66.4596 139.182 65.763 139.582 65.3398 140.383V145.07C65.7695 145.891 66.4727 146.301 67.4492 146.301C68.2044 146.301 68.7936 145.998 69.2168 145.393C69.6465 144.781 69.8613 143.856 69.8613 142.619ZM73.7969 142.619C73.7969 141.584 74.002 140.653 74.4121 139.826C74.8223 138.993 75.3984 138.355 76.1406 137.912C76.8828 137.463 77.7357 137.238 78.6992 137.238C80.125 137.238 81.2806 137.697 82.166 138.615C83.0579 139.533 83.5397 140.751 83.6113 142.268L83.6211 142.824C83.6211 143.866 83.4193 144.797 83.0156 145.617C82.6185 146.438 82.0456 147.072 81.2969 147.521C80.5547 147.971 79.6953 148.195 78.7188 148.195C77.2279 148.195 76.0332 147.701 75.1348 146.711C74.2428 145.715 73.7969 144.39 73.7969 142.736V142.619ZM76.1699 142.824C76.1699 143.911 76.3945 144.764 76.8438 145.383C77.293 145.995 77.918 146.301 78.7188 146.301C79.5195 146.301 80.1413 145.988 80.584 145.363C81.0332 144.738 81.2578 143.824 81.2578 142.619C81.2578 141.551 81.0267 140.705 80.5645 140.08C80.1087 139.455 79.487 139.143 78.6992 139.143C77.9245 139.143 77.3092 139.452 76.8535 140.07C76.3978 140.682 76.1699 141.6 76.1699 142.824ZM88.1523 148H85.7793V137.434H88.1523V148ZM85.6328 134.689C85.6328 134.325 85.7467 134.022 85.9746 133.781C86.209 133.54 86.541 133.42 86.9707 133.42C87.4004 133.42 87.7324 133.54 87.9668 133.781C88.2012 134.022 88.3184 134.325 88.3184 134.689C88.3184 135.048 88.2012 135.347 87.9668 135.588C87.7324 135.822 87.4004 135.939 86.9707 135.939C86.541 135.939 86.209 135.822 85.9746 135.588C85.7467 135.347 85.6328 135.048 85.6328 134.689ZM92.9473 137.434L93.0156 138.654C93.7969 137.71 94.8223 137.238 96.0918 137.238C98.2923 137.238 99.4121 138.498 99.4512 141.018V148H97.0781V141.154C97.0781 140.484 96.9316 139.989 96.6387 139.67C96.3522 139.344 95.8802 139.182 95.2227 139.182C94.2656 139.182 93.5527 139.615 93.084 140.48V148H90.7109V137.434H92.9473ZM104.852 134.865V137.434H106.717V139.191H104.852V145.09C104.852 145.493 104.93 145.786 105.086 145.969C105.249 146.145 105.535 146.232 105.945 146.232C106.219 146.232 106.495 146.2 106.775 146.135V147.971C106.235 148.12 105.714 148.195 105.213 148.195C103.39 148.195 102.479 147.189 102.479 145.178V139.191H100.74V137.434H102.479V134.865H104.852ZM114.461 145.129C114.461 144.706 114.285 144.383 113.934 144.162C113.589 143.941 113.012 143.745 112.205 143.576C111.398 143.407 110.724 143.192 110.184 142.932C108.999 142.359 108.406 141.529 108.406 140.441C108.406 139.53 108.79 138.768 109.559 138.156C110.327 137.544 111.303 137.238 112.488 137.238C113.751 137.238 114.77 137.551 115.545 138.176C116.326 138.801 116.717 139.611 116.717 140.607H114.344C114.344 140.152 114.174 139.774 113.836 139.475C113.497 139.169 113.048 139.016 112.488 139.016C111.967 139.016 111.541 139.136 111.209 139.377C110.883 139.618 110.721 139.94 110.721 140.344C110.721 140.708 110.874 140.992 111.18 141.193C111.486 141.395 112.104 141.6 113.035 141.809C113.966 142.01 114.695 142.255 115.223 142.541C115.757 142.821 116.15 143.16 116.404 143.557C116.665 143.954 116.795 144.436 116.795 145.002C116.795 145.952 116.401 146.724 115.613 147.316C114.826 147.902 113.794 148.195 112.518 148.195C111.652 148.195 110.88 148.039 110.203 147.727C109.526 147.414 108.999 146.984 108.621 146.438C108.243 145.891 108.055 145.301 108.055 144.67H110.359C110.392 145.23 110.604 145.663 110.994 145.969C111.385 146.268 111.902 146.418 112.547 146.418C113.172 146.418 113.647 146.301 113.973 146.066C114.298 145.826 114.461 145.513 114.461 145.129ZM126.375 148H124.002V133H126.375V148ZM133.621 148.195C132.117 148.195 130.896 147.723 129.959 146.779C129.028 145.829 128.562 144.566 128.562 142.99V142.697C128.562 141.643 128.764 140.702 129.168 139.875C129.578 139.042 130.151 138.394 130.887 137.932C131.622 137.469 132.443 137.238 133.348 137.238C134.786 137.238 135.896 137.697 136.678 138.615C137.465 139.533 137.859 140.832 137.859 142.512V143.469H130.955C131.027 144.341 131.316 145.031 131.824 145.539C132.339 146.047 132.983 146.301 133.758 146.301C134.845 146.301 135.73 145.861 136.414 144.982L137.693 146.203C137.27 146.835 136.704 147.326 135.994 147.678C135.291 148.023 134.5 148.195 133.621 148.195ZM133.338 139.143C132.687 139.143 132.16 139.37 131.756 139.826C131.359 140.282 131.105 140.917 130.994 141.73H135.516V141.555C135.464 140.76 135.252 140.161 134.881 139.758C134.51 139.348 133.995 139.143 133.338 139.143ZM140.545 148V139.191H138.934V137.434H140.545V136.467C140.545 135.295 140.87 134.39 141.521 133.752C142.173 133.114 143.084 132.795 144.256 132.795C144.673 132.795 145.115 132.854 145.584 132.971L145.525 134.826C145.265 134.774 144.962 134.748 144.617 134.748C143.484 134.748 142.918 135.331 142.918 136.496V137.434H145.066V139.191H142.918V148H140.545ZM149.773 134.865V137.434H151.639V139.191H149.773V145.09C149.773 145.493 149.852 145.786 150.008 145.969C150.171 146.145 150.457 146.232 150.867 146.232C151.141 146.232 151.417 146.2 151.697 146.135V147.971C151.157 148.12 150.636 148.195 150.135 148.195C148.312 148.195 147.4 147.189 147.4 145.178V139.191H145.662V137.434H147.4V134.865H149.773Z" fill="#002A52"/>
<path d="M213 128.082C208.135 184.391 159.48 227.226 104.022 225.978C46.1111 224.68 -3.20434 175.638 0.162881 117.293C3.36936 61.8214 53.0147 17.4836 111.332 20.111L110.283 44.4804C64.7238 42.477 25.8739 76.3132 23.3696 118.639C20.73 163.174 59.2585 200.59 104.589 201.567C147.957 202.52 185.986 169.833 189.785 126.85L213 128.082Z" fill="#002A52"/>
</svg>
