<svg width="576" height="89" viewBox="0 0 576 89" fill="none" xmlns="http://www.w3.org/2000/svg">
<ellipse cx="35" cy="19.2144" rx="20.3223" ry="19.2144" fill="#51CEA9"/>
<path d="M35 36.0504C62.6419 35.8143 68.4531 68.4502 69.6748 82.1828C69.9684 85.4834 67.3137 88.1543 64 88.1543H6C2.68629 88.1543 0.032245 85.4814 0.330994 82.1812C1.5652 68.5472 7.40148 36.2862 35 36.0504Z" fill="#51CEA9"/>
<rect x="99.5" y="25.5" width="37" height="31" rx="3.5" stroke="#002A52"/>
<path d="M111.516 40.9492L112.287 33.7812H119.924V35.832H114.26L113.869 39.2305C114.527 38.8529 115.269 38.6641 116.096 38.6641C117.45 38.6641 118.501 39.097 119.25 39.9629C120.005 40.8288 120.383 41.9941 120.383 43.459C120.383 44.9043 119.966 46.0566 119.133 46.916C118.299 47.7689 117.157 48.1953 115.705 48.1953C114.403 48.1953 113.322 47.8275 112.463 47.0918C111.61 46.3496 111.148 45.373 111.076 44.1621H113.371C113.462 44.8522 113.71 45.3828 114.113 45.7539C114.517 46.1185 115.044 46.3008 115.695 46.3008C116.424 46.3008 116.991 46.0404 117.395 45.5195C117.805 44.9987 118.01 44.2891 118.01 43.3906C118.01 42.5247 117.785 41.8411 117.336 41.3398C116.887 40.832 116.268 40.5781 115.48 40.5781C115.051 40.5781 114.686 40.6367 114.387 40.7539C114.087 40.8646 113.762 41.0859 113.41 41.418L111.516 40.9492Z" fill="#002A52"/>
<line x1="125.5" y1="34" x2="125.5" y2="53" stroke="#002A52"/>
<path d="M299 32H163C158.029 32 154 36.0294 154 41C154 45.9706 158.029 50 163 50H299C303.971 50 308 45.9706 308 41C308 36.0294 303.971 32 299 32Z" fill="#002A52"/>
<path d="M402 32H298C293.029 32 289 36.0294 289 41C289 45.9706 293.029 50 298 50H402C406.971 50 411 45.9706 411 41C411 36.0294 406.971 32 402 32Z" fill="#E5E5E5"/>
<g filter="url(#filter0_d)">
<ellipse cx="300.5" cy="40.5" rx="17.5" ry="16.5" fill="#546EC9"/>
</g>
<rect x="461" y="20" width="115" height="48" rx="10" fill="#546EC9"/>
<path d="M503.699 37.7852H498.473V52H494.957V37.7852H489.801V34.9375H503.699V37.7852ZM513.941 48.4844H507.777L506.605 52H502.867L509.219 34.9375H512.477L518.863 52H515.125L513.941 48.4844ZM508.727 45.6367H512.992L510.848 39.25L508.727 45.6367ZM525.801 45.1562L523.973 47.125V52H520.457V34.9375H523.973V42.6719L525.52 40.5508L529.867 34.9375H534.191L528.133 42.5195L534.367 52H530.184L525.801 45.1562ZM545.957 44.6055H539.207V49.1758H547.129V52H535.691V34.9375H547.105V37.7852H539.207V41.8516H545.957V44.6055Z" fill="white"/>
<defs>
<filter id="filter0_d" x="279" y="24" width="43" height="41" filterUnits="userSpaceOnUse" color-interpolation-filters="sRGB">
<feFlood flood-opacity="0" result="BackgroundImageFix"/>
<feColorMatrix in="SourceAlpha" type="matrix" values="0 0 0 0 0 0 0 0 0 0 0 0 0 0 0 0 0 0 127 0"/>
<feOffset dy="4"/>
<feGaussianBlur stdDeviation="2"/>
<feColorMatrix type="matrix" values="0 0 0 0 0 0 0 0 0 0 0 0 0 0 0 0 0 0 0.25 0"/>
<feBlend mode="normal" in2="BackgroundImageFix" result="effect1_dropShadow"/>
<feBlend mode="normal" in="SourceGraphic" in2="effect1_dropShadow" result="shape"/>
</filter>
</defs>
</svg>
